<svg width="220" height="166" viewBox="0 0 220 166" fill="none" xmlns="http://www.w3.org/2000/svg">
<path d="M18.8537 28H14.8991L20.9247 10.5455H25.6804L31.6974 28H27.7429L23.3707 14.5341H23.2344L18.8537 28ZM18.6065 21.1392H27.9474V24.0199H18.6065V21.1392ZM33.7983 28V10.5455H45.3551V13.5881H37.4886V17.7472H44.5881V20.7898H37.4886V28H33.7983ZM47.8374 28V10.5455H59.3942V13.5881H51.5277V17.7472H58.6271V20.7898H51.5277V28H47.8374ZM77.9162 19.2727C77.9162 21.1761 77.5554 22.7955 76.8338 24.1307C76.1179 25.4659 75.1406 26.4858 73.902 27.1903C72.669 27.8892 71.2827 28.2386 69.7429 28.2386C68.1918 28.2386 66.7997 27.8864 65.5668 27.1818C64.3338 26.4773 63.3594 25.4574 62.6435 24.1222C61.9276 22.7869 61.5696 21.1705 61.5696 19.2727C61.5696 17.3693 61.9276 15.75 62.6435 14.4148C63.3594 13.0795 64.3338 12.0625 65.5668 11.3636C66.7997 10.6591 68.1918 10.3068 69.7429 10.3068C71.2827 10.3068 72.669 10.6591 73.902 11.3636C75.1406 12.0625 76.1179 13.0795 76.8338 14.4148C77.5554 15.75 77.9162 17.3693 77.9162 19.2727ZM74.1747 19.2727C74.1747 18.0398 73.9901 17 73.6207 16.1534C73.2571 15.3068 72.7429 14.6648 72.0781 14.2273C71.4134 13.7898 70.6349 13.571 69.7429 13.571C68.8509 13.571 68.0724 13.7898 67.4077 14.2273C66.7429 14.6648 66.2259 15.3068 65.8565 16.1534C65.4929 17 65.3111 18.0398 65.3111 19.2727C65.3111 20.5057 65.4929 21.5455 65.8565 22.392C66.2259 23.2386 66.7429 23.8807 67.4077 24.3182C68.0724 24.7557 68.8509 24.9744 69.7429 24.9744C70.6349 24.9744 71.4134 24.7557 72.0781 24.3182C72.7429 23.8807 73.2571 23.2386 73.6207 22.392C73.9901 21.5455 74.1747 20.5057 74.1747 19.2727ZM80.6499 28V10.5455H87.5362C88.8544 10.5455 89.9794 10.7812 90.9112 11.2528C91.8487 11.7187 92.5618 12.3807 93.0504 13.2386C93.5447 14.0909 93.7919 15.0937 93.7919 16.2472C93.7919 17.4062 93.5419 18.4034 93.0419 19.2386C92.5419 20.0682 91.8175 20.7045 90.8686 21.1477C89.9254 21.5909 88.7834 21.8125 87.4425 21.8125H82.8317V18.8466H86.8459C87.5504 18.8466 88.1357 18.75 88.6016 18.5568C89.0675 18.3636 89.4141 18.0739 89.6413 17.6875C89.8743 17.3011 89.9908 16.821 89.9908 16.2472C89.9908 15.6676 89.8743 15.179 89.6413 14.7812C89.4141 14.3835 89.0646 14.0824 88.593 13.8778C88.1271 13.6676 87.5391 13.5625 86.8288 13.5625H84.3402V28H80.6499ZM90.076 20.0568L94.4141 28H90.3402L86.0959 20.0568H90.076ZM102.587 28H96.3999V10.5455H102.638C104.394 10.5455 105.906 10.8949 107.173 11.5938C108.44 12.2869 109.414 13.2841 110.096 14.5852C110.783 15.8864 111.127 17.4432 111.127 19.2557C111.127 21.0739 110.783 22.6364 110.096 23.9432C109.414 25.25 108.434 26.2528 107.156 26.9517C105.883 27.6506 104.36 28 102.587 28ZM100.09 24.8381H102.434C103.525 24.8381 104.442 24.6449 105.187 24.2585C105.937 23.8665 106.499 23.2614 106.874 22.4432C107.255 21.6193 107.445 20.5568 107.445 19.2557C107.445 17.9659 107.255 16.9119 106.874 16.0938C106.499 15.2756 105.94 14.6733 105.195 14.2869C104.451 13.9006 103.533 13.7074 102.442 13.7074H100.09V24.8381ZM115.885 28H111.93L117.956 10.5455H122.712L128.729 28H124.774L120.402 14.5341H120.266L115.885 28ZM115.638 21.1392H124.979V24.0199H115.638V21.1392ZM130.83 28V10.5455H137.818C139.102 10.5455 140.173 10.7358 141.031 11.1165C141.889 11.4972 142.534 12.0256 142.966 12.7017C143.398 13.3722 143.614 14.1449 143.614 15.0199C143.614 15.7017 143.477 16.3011 143.205 16.8182C142.932 17.3295 142.557 17.75 142.08 18.0795C141.608 18.4034 141.068 18.6335 140.46 18.7699V18.9403C141.125 18.9687 141.747 19.1562 142.327 19.5028C142.912 19.8494 143.386 20.3352 143.75 20.9602C144.114 21.5795 144.295 22.3182 144.295 23.1761C144.295 24.1023 144.065 24.929 143.605 25.6562C143.151 26.3778 142.477 26.9489 141.585 27.3693C140.693 27.7898 139.594 28 138.287 28H130.83ZM134.52 24.983H137.528C138.557 24.983 139.307 24.7869 139.778 24.3949C140.25 23.9972 140.486 23.4687 140.486 22.8097C140.486 22.3267 140.369 21.9006 140.136 21.5312C139.903 21.1619 139.571 20.8722 139.139 20.6619C138.713 20.4517 138.205 20.3466 137.614 20.3466H134.52V24.983ZM134.52 17.8494H137.256C137.761 17.8494 138.21 17.7614 138.602 17.5852C139 17.4034 139.313 17.1477 139.54 16.8182C139.773 16.4886 139.889 16.0938 139.889 15.6335C139.889 15.0028 139.665 14.4943 139.216 14.108C138.773 13.7216 138.142 13.5284 137.324 13.5284H134.52V17.8494ZM150.387 10.5455V28H146.697V10.5455H150.387ZM153.423 28V10.5455H157.114V24.9574H164.597V28H153.423ZM170.731 10.5455V28H167.04V10.5455H170.731ZM173.102 13.5881V10.5455H187.438V13.5881H182.094V28H178.446V13.5881H173.102ZM188.776 10.5455H192.909L196.889 18.0625H197.06L201.04 10.5455H205.173L198.807 21.8295V28H195.142V21.8295L188.776 10.5455Z" fill="#240076"/>
<path d="M1.09417 86.1307V84.3636H10.3783V86.1307H6.78167V96H4.69076V86.1307H1.09417ZM12.318 96V84.3636H16.6817C17.5756 84.3636 18.3256 84.5189 18.9317 84.8295C19.5415 85.1402 20.0017 85.5758 20.3124 86.1364C20.6267 86.6932 20.7839 87.3428 20.7839 88.0852C20.7839 88.8314 20.6249 89.4792 20.3067 90.0284C19.9923 90.5739 19.5283 90.9962 18.9146 91.2955C18.301 91.5909 17.5472 91.7386 16.6533 91.7386H13.5453V89.9886H16.3692C16.8919 89.9886 17.3199 89.9167 17.6533 89.7727C17.9866 89.625 18.2328 89.411 18.3919 89.1307C18.5548 88.8466 18.6362 88.4981 18.6362 88.0852C18.6362 87.6723 18.5548 87.3201 18.3919 87.0284C18.229 86.733 17.9809 86.5095 17.6476 86.358C17.3142 86.2027 16.8843 86.125 16.3578 86.125H14.426V96H12.318ZM18.3294 90.7273L21.2101 96H18.8578L16.0283 90.7273H18.3294ZM30.2095 84.3636H32.3175V91.9659C32.3175 92.7992 32.1205 93.5322 31.7266 94.1648C31.3364 94.7973 30.7872 95.2917 30.0788 95.6477C29.3705 96 28.5428 96.1761 27.5959 96.1761C26.6451 96.1761 25.8156 96 25.1072 95.6477C24.3989 95.2917 23.8497 94.7973 23.4595 94.1648C23.0694 93.5322 22.8743 92.7992 22.8743 91.9659V84.3636H24.9822V91.7898C24.9822 92.2746 25.0883 92.7064 25.3004 93.0852C25.5163 93.464 25.8194 93.7614 26.2095 93.9773C26.5997 94.1894 27.0618 94.2955 27.5959 94.2955C28.13 94.2955 28.5921 94.1894 28.9822 93.9773C29.3762 93.7614 29.6792 93.464 29.8913 93.0852C30.1035 92.7064 30.2095 92.2746 30.2095 91.7898V84.3636ZM41.0825 87.5625C41.0295 87.0663 40.806 86.6799 40.4121 86.4034C40.0219 86.1269 39.5143 85.9886 38.8893 85.9886C38.45 85.9886 38.0731 86.0549 37.7587 86.1875C37.4443 86.3201 37.2037 86.5 37.0371 86.7273C36.8704 86.9545 36.7852 87.214 36.7814 87.5057C36.7814 87.7481 36.8363 87.9583 36.9462 88.1364C37.0598 88.3144 37.2132 88.4659 37.4064 88.5909C37.5996 88.7121 37.8136 88.8144 38.0484 88.8977C38.2833 88.9811 38.52 89.0511 38.7587 89.108L39.8496 89.3807C40.289 89.483 40.7113 89.6212 41.1166 89.7955C41.5257 89.9697 41.8912 90.1894 42.2132 90.4545C42.539 90.7197 42.7965 91.0398 42.9859 91.4148C43.1753 91.7898 43.27 92.2292 43.27 92.733C43.27 93.4148 43.0958 94.0152 42.7473 94.5341C42.3988 95.0492 41.895 95.4527 41.2359 95.7443C40.5806 96.0322 39.7871 96.1761 38.8553 96.1761C37.95 96.1761 37.164 96.036 36.4973 95.7557C35.8344 95.4754 35.3155 95.0663 34.9405 94.5284C34.5693 93.9905 34.3685 93.3352 34.3382 92.5625H36.4121C36.4424 92.9678 36.5674 93.3049 36.7871 93.5739C37.0068 93.8428 37.2928 94.0436 37.645 94.1761C38.0011 94.3087 38.3988 94.375 38.8382 94.375C39.2965 94.375 39.6981 94.3068 40.0428 94.1705C40.3912 94.0303 40.664 93.8371 40.8609 93.5909C41.0579 93.3409 41.1583 93.0492 41.1621 92.7159C41.1583 92.4129 41.0693 92.1629 40.895 91.9659C40.7208 91.7652 40.4765 91.5985 40.1621 91.4659C39.8515 91.3295 39.4878 91.2083 39.0712 91.1023L37.7473 90.7614C36.789 90.5152 36.0314 90.142 35.4746 89.642C34.9215 89.1383 34.645 88.4697 34.645 87.6364C34.645 86.9508 34.8306 86.3504 35.2018 85.8352C35.5768 85.3201 36.0863 84.9205 36.7303 84.6364C37.3742 84.3485 38.1034 84.2045 38.9178 84.2045C39.7435 84.2045 40.467 84.3485 41.0882 84.6364C41.7132 84.9205 42.2037 85.3163 42.5598 85.8239C42.9159 86.3277 43.0996 86.9072 43.1109 87.5625H41.0825ZM44.7879 86.1307V84.3636H54.072V86.1307H50.4754V96H48.3845V86.1307H44.7879ZM58.4607 96L55.1766 84.3636H57.4436L59.5402 92.9148H59.6482L61.8868 84.3636H63.9493L66.1936 92.9205H66.2959L68.3925 84.3636H70.6595L67.3754 96H65.2959L62.9663 87.8352H62.8754L60.5402 96H58.4607ZM82.0439 90.1818C82.0439 91.4356 81.809 92.5095 81.3393 93.4034C80.8734 94.2936 80.2371 94.9754 79.4303 95.4489C78.6272 95.9223 77.7162 96.1591 76.6973 96.1591C75.6784 96.1591 74.7655 95.9223 73.9587 95.4489C73.1556 94.9716 72.5193 94.2879 72.0496 93.3977C71.5837 92.5038 71.3507 91.4318 71.3507 90.1818C71.3507 88.928 71.5837 87.8561 72.0496 86.9659C72.5193 86.072 73.1556 85.3883 73.9587 84.9148C74.7655 84.4413 75.6784 84.2045 76.6973 84.2045C77.7162 84.2045 78.6272 84.4413 79.4303 84.9148C80.2371 85.3883 80.8734 86.072 81.3393 86.9659C81.809 87.8561 82.0439 88.928 82.0439 90.1818ZM79.9246 90.1818C79.9246 89.2992 79.7863 88.5549 79.5098 87.9489C79.2371 87.339 78.8583 86.8788 78.3734 86.5682C77.8886 86.2538 77.3299 86.0966 76.6973 86.0966C76.0647 86.0966 75.506 86.2538 75.0212 86.5682C74.5363 86.8788 74.1556 87.339 73.8791 87.9489C73.6064 88.5549 73.47 89.2992 73.47 90.1818C73.47 91.0644 73.6064 91.8106 73.8791 92.4205C74.1556 93.0265 74.5363 93.4867 75.0212 93.8011C75.506 94.1117 76.0647 94.267 76.6973 94.267C77.3299 94.267 77.8886 94.1117 78.3734 93.8011C78.8583 93.4867 79.2371 93.0265 79.5098 92.4205C79.7863 91.8106 79.9246 91.0644 79.9246 90.1818ZM84.1868 96V84.3636H88.5504C89.4444 84.3636 90.1944 84.5189 90.8004 84.8295C91.4103 85.1402 91.8705 85.5758 92.1811 86.1364C92.4955 86.6932 92.6527 87.3428 92.6527 88.0852C92.6527 88.8314 92.4936 89.4792 92.1754 90.0284C91.861 90.5739 91.397 90.9962 90.7834 91.2955C90.1697 91.5909 89.416 91.7386 88.522 91.7386H85.4141V89.9886H88.2379C88.7607 89.9886 89.1887 89.9167 89.522 89.7727C89.8554 89.625 90.1016 89.411 90.2607 89.1307C90.4235 88.8466 90.505 88.4981 90.505 88.0852C90.505 87.6723 90.4235 87.3201 90.2607 87.0284C90.0978 86.733 89.8497 86.5095 89.5163 86.358C89.183 86.2027 88.7531 86.125 88.2266 86.125H86.2947V96H84.1868ZM90.1982 90.7273L93.0788 96H90.7266L87.897 90.7273H90.1982ZM94.2317 86.1307V84.3636H103.516V86.1307H99.9192V96H97.8283V86.1307H94.2317ZM105.456 96V84.3636H107.563V89.2898H112.956V84.3636H115.069V96H112.956V91.0568H107.563V96H105.456ZM116.716 84.3636H119.097L121.944 89.5114H122.057L124.904 84.3636H127.285L123.052 91.6591V96H120.949V91.6591L116.716 84.3636ZM136.433 96.1705C135.637 96.1705 134.953 96.0265 134.381 95.7386C133.809 95.4508 133.368 95.0625 133.058 94.5739C132.751 94.0814 132.597 93.5265 132.597 92.9091C132.597 92.4432 132.692 92.0303 132.881 91.6705C133.075 91.3106 133.34 90.9773 133.677 90.6705C134.018 90.3636 134.412 90.0587 134.859 89.7557L136.921 88.3523C137.224 88.1553 137.453 87.947 137.609 87.7273C137.768 87.5076 137.847 87.25 137.847 86.9545C137.847 86.7045 137.741 86.4678 137.529 86.2443C137.321 86.0208 137.033 85.9091 136.665 85.9091C136.419 85.9091 136.201 85.9678 136.012 86.0852C135.826 86.1989 135.681 86.3485 135.575 86.5341C135.472 86.7197 135.421 86.9167 135.421 87.125C135.421 87.3788 135.491 87.6364 135.631 87.8977C135.775 88.1591 135.961 88.4299 136.188 88.7102C136.419 88.9905 136.665 89.2879 136.927 89.6023L142.387 96H140.16L135.626 90.8068C135.289 90.4129 134.963 90.0246 134.648 89.642C134.338 89.2595 134.082 88.8617 133.881 88.4489C133.684 88.0322 133.586 87.5814 133.586 87.0966C133.586 86.5473 133.713 86.0568 133.967 85.625C134.22 85.1894 134.575 84.8466 135.029 84.5966C135.487 84.3466 136.023 84.2216 136.637 84.2216C137.251 84.2216 137.777 84.3428 138.217 84.5852C138.656 84.8277 138.995 85.1496 139.234 85.5511C139.472 85.9527 139.592 86.3902 139.592 86.8636C139.592 87.4129 139.455 87.9053 139.183 88.3409C138.91 88.7727 138.531 89.1648 138.046 89.517L135.694 91.2386C135.308 91.5189 135.031 91.803 134.864 92.0909C134.698 92.375 134.614 92.6174 134.614 92.8182C134.614 93.125 134.692 93.4034 134.847 93.6534C135.003 93.9034 135.22 94.1042 135.501 94.2557C135.785 94.4034 136.116 94.4773 136.495 94.4773C136.912 94.4773 137.323 94.3845 137.728 94.1989C138.133 94.0095 138.503 93.7405 138.836 93.392C139.169 93.0436 139.434 92.6269 139.631 92.142C139.828 91.6534 139.927 91.1117 139.927 90.517H141.694C141.694 91.2519 141.612 91.892 141.45 92.4375C141.287 92.9792 141.076 93.4375 140.819 93.8125C140.561 94.1837 140.289 94.4811 140.001 94.7045C139.91 94.7689 139.823 94.8333 139.739 94.8977C139.656 94.9621 139.569 95.0265 139.478 95.0909C139.069 95.4621 138.59 95.7348 138.04 95.9091C137.495 96.0833 136.959 96.1705 136.433 96.1705ZM150.373 96L147.089 84.3636H149.356L151.453 92.9148H151.561L153.799 84.3636H155.862L158.106 92.9205H158.208L160.305 84.3636H162.572L159.288 96H157.208L154.879 87.8352H154.788L152.453 96H150.373ZM173.956 90.1818C173.956 91.4356 173.722 92.5095 173.252 93.4034C172.786 94.2936 172.15 94.9754 171.343 95.4489C170.54 95.9223 169.629 96.1591 168.61 96.1591C167.591 96.1591 166.678 95.9223 165.871 95.4489C165.068 94.9716 164.432 94.2879 163.962 93.3977C163.496 92.5038 163.263 91.4318 163.263 90.1818C163.263 88.928 163.496 87.8561 163.962 86.9659C164.432 86.072 165.068 85.3883 165.871 84.9148C166.678 84.4413 167.591 84.2045 168.61 84.2045C169.629 84.2045 170.54 84.4413 171.343 84.9148C172.15 85.3883 172.786 86.072 173.252 86.9659C173.722 87.8561 173.956 88.928 173.956 90.1818ZM171.837 90.1818C171.837 89.2992 171.699 88.5549 171.422 87.9489C171.15 87.339 170.771 86.8788 170.286 86.5682C169.801 86.2538 169.242 86.0966 168.61 86.0966C167.977 86.0966 167.419 86.2538 166.934 86.5682C166.449 86.8788 166.068 87.339 165.792 87.9489C165.519 88.5549 165.383 89.2992 165.383 90.1818C165.383 91.0644 165.519 91.8106 165.792 92.4205C166.068 93.0265 166.449 93.4867 166.934 93.8011C167.419 94.1117 167.977 94.267 168.61 94.267C169.242 94.267 169.801 94.1117 170.286 93.8011C170.771 93.4867 171.15 93.0265 171.422 92.4205C171.699 91.8106 171.837 91.0644 171.837 90.1818ZM176.099 96V84.3636H180.463C181.357 84.3636 182.107 84.5189 182.713 84.8295C183.323 85.1402 183.783 85.5758 184.094 86.1364C184.408 86.6932 184.565 87.3428 184.565 88.0852C184.565 88.8314 184.406 89.4792 184.088 90.0284C183.774 90.5739 183.31 90.9962 182.696 91.2955C182.082 91.5909 181.328 91.7386 180.435 91.7386H177.327V89.9886H180.15C180.673 89.9886 181.101 89.9167 181.435 89.7727C181.768 89.625 182.014 89.411 182.173 89.1307C182.336 88.8466 182.417 88.4981 182.417 88.0852C182.417 87.6723 182.336 87.3201 182.173 87.0284C182.01 86.733 181.762 86.5095 181.429 86.358C181.095 86.2027 180.666 86.125 180.139 86.125H178.207V96H176.099ZM182.111 90.7273L184.991 96H182.639L179.81 90.7273H182.111ZM186.144 86.1307V84.3636H195.428V86.1307H191.832V96H189.741V86.1307H186.144ZM197.368 96V84.3636H199.476V89.2898H204.868V84.3636H206.982V96H204.868V91.0568H199.476V96H197.368ZM208.629 84.3636H211.01L213.856 89.5114H213.97L216.816 84.3636H219.197L214.964 91.6591V96H212.862V91.6591L208.629 84.3636Z" fill="#D8B7FB"/>
<path d="M40.9716 151.562C40.9186 151.066 40.6951 150.68 40.3011 150.403C39.911 150.127 39.4034 149.989 38.7784 149.989C38.339 149.989 37.9621 150.055 37.6477 150.188C37.3333 150.32 37.0928 150.5 36.9261 150.727C36.7595 150.955 36.6742 151.214 36.6705 151.506C36.6705 151.748 36.7254 151.958 36.8352 152.136C36.9489 152.314 37.1023 152.466 37.2955 152.591C37.4886 152.712 37.7027 152.814 37.9375 152.898C38.1723 152.981 38.4091 153.051 38.6477 153.108L39.7386 153.381C40.178 153.483 40.6004 153.621 41.0057 153.795C41.4148 153.97 41.7803 154.189 42.1023 154.455C42.428 154.72 42.6856 155.04 42.875 155.415C43.0644 155.79 43.1591 156.229 43.1591 156.733C43.1591 157.415 42.9848 158.015 42.6364 158.534C42.2879 159.049 41.7841 159.453 41.125 159.744C40.4697 160.032 39.6761 160.176 38.7443 160.176C37.839 160.176 37.053 160.036 36.3864 159.756C35.7235 159.475 35.2045 159.066 34.8295 158.528C34.4583 157.991 34.2576 157.335 34.2273 156.562H36.3011C36.3314 156.968 36.4564 157.305 36.6761 157.574C36.8958 157.843 37.1818 158.044 37.5341 158.176C37.8902 158.309 38.2879 158.375 38.7273 158.375C39.1856 158.375 39.5871 158.307 39.9318 158.17C40.2803 158.03 40.553 157.837 40.75 157.591C40.947 157.341 41.0473 157.049 41.0511 156.716C41.0473 156.413 40.9583 156.163 40.7841 155.966C40.6098 155.765 40.3655 155.598 40.0511 155.466C39.7405 155.33 39.3769 155.208 38.9602 155.102L37.6364 154.761C36.678 154.515 35.9205 154.142 35.3636 153.642C34.8106 153.138 34.5341 152.47 34.5341 151.636C34.5341 150.951 34.7197 150.35 35.0909 149.835C35.4659 149.32 35.9754 148.92 36.6193 148.636C37.2633 148.348 37.9924 148.205 38.8068 148.205C39.6326 148.205 40.3561 148.348 40.9773 148.636C41.6023 148.92 42.0928 149.316 42.4489 149.824C42.8049 150.328 42.9886 150.907 43 151.562H40.9716ZM46.4952 160H44.2452L48.3418 148.364H50.944L55.0463 160H52.7963L49.6884 150.75H49.5974L46.4952 160ZM46.569 155.438H52.7054V157.131H46.569V155.438ZM56.729 160V148.364H64.1835V150.131H58.8369V153.29H63.6722V155.057H58.8369V160H56.729ZM66.254 160V148.364H73.8222V150.131H68.3619V153.29H73.4301V155.057H68.3619V158.233H73.8676V160H66.254ZM75.6114 150.131V148.364H84.8955V150.131H81.2989V160H79.208V150.131H75.6114ZM86.0398 148.364H88.4205L91.267 153.511H91.3807L94.2273 148.364H96.608L92.375 155.659V160H90.2727V155.659L86.0398 148.364ZM105.756 160.17C104.961 160.17 104.277 160.027 103.705 159.739C103.133 159.451 102.692 159.062 102.381 158.574C102.074 158.081 101.921 157.527 101.921 156.909C101.921 156.443 102.015 156.03 102.205 155.67C102.398 155.311 102.663 154.977 103 154.67C103.341 154.364 103.735 154.059 104.182 153.756L106.245 152.352C106.548 152.155 106.777 151.947 106.932 151.727C107.091 151.508 107.171 151.25 107.171 150.955C107.171 150.705 107.065 150.468 106.853 150.244C106.644 150.021 106.356 149.909 105.989 149.909C105.743 149.909 105.525 149.968 105.336 150.085C105.15 150.199 105.004 150.348 104.898 150.534C104.796 150.72 104.745 150.917 104.745 151.125C104.745 151.379 104.815 151.636 104.955 151.898C105.099 152.159 105.284 152.43 105.512 152.71C105.743 152.991 105.989 153.288 106.25 153.602L111.711 160H109.483L104.949 154.807C104.612 154.413 104.286 154.025 103.972 153.642C103.661 153.259 103.406 152.862 103.205 152.449C103.008 152.032 102.909 151.581 102.909 151.097C102.909 150.547 103.036 150.057 103.29 149.625C103.544 149.189 103.898 148.847 104.353 148.597C104.811 148.347 105.347 148.222 105.961 148.222C106.574 148.222 107.101 148.343 107.54 148.585C107.979 148.828 108.318 149.15 108.557 149.551C108.796 149.953 108.915 150.39 108.915 150.864C108.915 151.413 108.779 151.905 108.506 152.341C108.233 152.773 107.854 153.165 107.37 153.517L105.017 155.239C104.631 155.519 104.354 155.803 104.188 156.091C104.021 156.375 103.938 156.617 103.938 156.818C103.938 157.125 104.015 157.403 104.171 157.653C104.326 157.903 104.544 158.104 104.824 158.256C105.108 158.403 105.44 158.477 105.818 158.477C106.235 158.477 106.646 158.384 107.051 158.199C107.457 158.009 107.826 157.741 108.159 157.392C108.493 157.044 108.758 156.627 108.955 156.142C109.152 155.653 109.25 155.112 109.25 154.517H111.017C111.017 155.252 110.936 155.892 110.773 156.438C110.61 156.979 110.4 157.438 110.142 157.812C109.885 158.184 109.612 158.481 109.324 158.705C109.233 158.769 109.146 158.833 109.063 158.898C108.979 158.962 108.892 159.027 108.801 159.091C108.392 159.462 107.913 159.735 107.364 159.909C106.818 160.083 106.282 160.17 105.756 160.17ZM117.248 160V148.364H121.611C122.505 148.364 123.255 148.53 123.861 148.864C124.471 149.197 124.931 149.655 125.242 150.239C125.556 150.818 125.714 151.477 125.714 152.216C125.714 152.962 125.556 153.625 125.242 154.205C124.928 154.784 124.464 155.241 123.85 155.574C123.236 155.903 122.481 156.068 121.583 156.068H118.691V154.335H121.299C121.822 154.335 122.25 154.244 122.583 154.062C122.916 153.881 123.162 153.631 123.322 153.312C123.484 152.994 123.566 152.629 123.566 152.216C123.566 151.803 123.484 151.439 123.322 151.125C123.162 150.811 122.914 150.566 122.577 150.392C122.244 150.214 121.814 150.125 121.287 150.125H119.356V160H117.248ZM127.695 160V148.364H132.058C132.952 148.364 133.702 148.519 134.308 148.83C134.918 149.14 135.378 149.576 135.689 150.136C136.003 150.693 136.161 151.343 136.161 152.085C136.161 152.831 136.001 153.479 135.683 154.028C135.369 154.574 134.905 154.996 134.291 155.295C133.678 155.591 132.924 155.739 132.03 155.739H128.922V153.989H131.746C132.268 153.989 132.696 153.917 133.03 153.773C133.363 153.625 133.609 153.411 133.768 153.131C133.931 152.847 134.013 152.498 134.013 152.085C134.013 151.672 133.931 151.32 133.768 151.028C133.606 150.733 133.357 150.509 133.024 150.358C132.691 150.203 132.261 150.125 131.734 150.125H129.803V160H127.695ZM133.706 154.727L136.587 160H134.234L131.405 154.727H133.706ZM140.359 148.364V160H138.251V148.364H140.359ZM144.348 148.364L147.377 157.523H147.496L150.519 148.364H152.837L148.735 160H146.132L142.036 148.364H144.348ZM154.655 160H152.405L156.501 148.364H159.103L163.206 160H160.956L157.848 150.75H157.757L154.655 160ZM154.728 155.438H160.865V157.131H154.728V155.438ZM174.302 152.29H172.177C172.116 151.941 172.004 151.633 171.841 151.364C171.679 151.091 171.476 150.86 171.234 150.67C170.991 150.481 170.715 150.339 170.404 150.244C170.097 150.146 169.766 150.097 169.41 150.097C168.777 150.097 168.216 150.256 167.728 150.574C167.239 150.888 166.857 151.35 166.58 151.96C166.304 152.566 166.165 153.307 166.165 154.182C166.165 155.072 166.304 155.822 166.58 156.432C166.86 157.038 167.243 157.496 167.728 157.807C168.216 158.114 168.775 158.267 169.404 158.267C169.752 158.267 170.078 158.222 170.381 158.131C170.688 158.036 170.963 157.898 171.205 157.716C171.451 157.534 171.658 157.311 171.824 157.045C171.995 156.78 172.112 156.477 172.177 156.136L174.302 156.148C174.222 156.701 174.05 157.22 173.785 157.705C173.523 158.189 173.18 158.617 172.756 158.989C172.332 159.356 171.836 159.644 171.268 159.852C170.699 160.057 170.069 160.159 169.376 160.159C168.353 160.159 167.44 159.922 166.637 159.449C165.834 158.975 165.201 158.292 164.739 157.398C164.277 156.504 164.046 155.432 164.046 154.182C164.046 152.928 164.279 151.856 164.745 150.966C165.211 150.072 165.845 149.388 166.648 148.915C167.451 148.441 168.36 148.205 169.376 148.205C170.023 148.205 170.626 148.295 171.182 148.477C171.739 148.659 172.235 148.926 172.671 149.278C173.107 149.627 173.465 150.055 173.745 150.562C174.029 151.066 174.215 151.642 174.302 152.29ZM175.587 148.364H177.967L180.814 153.511H180.928L183.774 148.364H186.155L181.922 155.659V160H179.82V155.659L175.587 148.364Z" fill="#F3E9FE"/>
</svg>
