<svg width="329" height="166" viewBox="0 0 329 166" fill="none" xmlns="http://www.w3.org/2000/svg">
<path d="M103.312 18H101.062L105.159 6.36364H107.761L111.863 18H109.613L106.506 8.75H106.415L103.312 18ZM103.386 13.4375H109.523V15.1307H103.386V13.4375ZM113.546 18V6.36364H121.001V8.13068H115.654V11.2898H120.489V13.0568H115.654V18H113.546ZM123.071 18V6.36364H130.526V8.13068H125.179V11.2898H130.014V13.0568H125.179V18H123.071ZM142.994 12.1818C142.994 13.4356 142.759 14.5095 142.289 15.4034C141.823 16.2936 141.187 16.9754 140.38 17.4489C139.577 17.9223 138.666 18.1591 137.647 18.1591C136.628 18.1591 135.715 17.9223 134.909 17.4489C134.106 16.9716 133.469 16.2879 133 15.3977C132.534 14.5038 132.301 13.4318 132.301 12.1818C132.301 10.928 132.534 9.85606 133 8.96591C133.469 8.07197 134.106 7.38826 134.909 6.91477C135.715 6.44129 136.628 6.20455 137.647 6.20455C138.666 6.20455 139.577 6.44129 140.38 6.91477C141.187 7.38826 141.823 8.07197 142.289 8.96591C142.759 9.85606 142.994 10.928 142.994 12.1818ZM140.875 12.1818C140.875 11.2992 140.736 10.5549 140.46 9.94886C140.187 9.33902 139.808 8.87879 139.323 8.56818C138.839 8.25379 138.28 8.09659 137.647 8.09659C137.015 8.09659 136.456 8.25379 135.971 8.56818C135.486 8.87879 135.106 9.33902 134.829 9.94886C134.556 10.5549 134.42 11.2992 134.42 12.1818C134.42 13.0644 134.556 13.8106 134.829 14.4205C135.106 15.0265 135.486 15.4867 135.971 15.8011C136.456 16.1117 137.015 16.267 137.647 16.267C138.28 16.267 138.839 16.1117 139.323 15.8011C139.808 15.4867 140.187 15.0265 140.46 14.4205C140.736 13.8106 140.875 13.0644 140.875 12.1818ZM145.137 18V6.36364H149.5C150.394 6.36364 151.144 6.51894 151.75 6.82955C152.36 7.14015 152.82 7.57576 153.131 8.13636C153.445 8.69318 153.603 9.3428 153.603 10.0852C153.603 10.8314 153.444 11.4792 153.125 12.0284C152.811 12.5739 152.347 12.9962 151.733 13.2955C151.12 13.5909 150.366 13.7386 149.472 13.7386H146.364V11.9886H149.188C149.711 11.9886 150.139 11.9167 150.472 11.7727C150.805 11.625 151.052 11.411 151.211 11.1307C151.374 10.8466 151.455 10.4981 151.455 10.0852C151.455 9.67235 151.374 9.32008 151.211 9.02841C151.048 8.73295 150.8 8.50947 150.466 8.35795C150.133 8.20265 149.703 8.125 149.177 8.125H147.245V18H145.137ZM151.148 12.7273L154.029 18H151.677L148.847 12.7273H151.148ZM159.636 18H155.693V6.36364H159.716C160.871 6.36364 161.863 6.59659 162.693 7.0625C163.526 7.52462 164.167 8.18939 164.613 9.05682C165.06 9.92424 165.284 10.9621 165.284 12.1705C165.284 13.3826 165.059 14.4242 164.608 15.2955C164.161 16.1667 163.515 16.8352 162.67 17.3011C161.829 17.767 160.818 18 159.636 18ZM157.801 16.1761H159.534C160.345 16.1761 161.021 16.0284 161.562 15.733C162.104 15.4337 162.511 14.9886 162.784 14.3977C163.057 13.803 163.193 13.0606 163.193 12.1705C163.193 11.2803 163.057 10.5417 162.784 9.95455C162.511 9.36364 162.108 8.92235 161.574 8.63068C161.043 8.33523 160.384 8.1875 159.596 8.1875H157.801V16.1761ZM168.306 18H166.056L170.153 6.36364H172.755L176.857 18H174.607L171.499 8.75H171.408L168.306 18ZM168.38 13.4375H174.516V15.1307H168.38V13.4375ZM178.54 18V6.36364H182.994C183.835 6.36364 184.534 6.49621 185.091 6.76136C185.652 7.02273 186.07 7.38068 186.347 7.83523C186.627 8.28977 186.767 8.80492 186.767 9.38068C186.767 9.85417 186.676 10.2595 186.494 10.5966C186.313 10.9299 186.068 11.2008 185.762 11.4091C185.455 11.6174 185.112 11.767 184.733 11.858V11.9716C185.146 11.9943 185.542 12.1212 185.921 12.3523C186.303 12.5795 186.616 12.9015 186.858 13.3182C187.101 13.7348 187.222 14.2386 187.222 14.8295C187.222 15.4318 187.076 15.9735 186.784 16.4545C186.493 16.9318 186.053 17.3087 185.466 17.5852C184.879 17.8617 184.14 18 183.25 18H178.54ZM180.648 16.2386H182.915C183.68 16.2386 184.231 16.0928 184.568 15.8011C184.909 15.5057 185.08 15.1269 185.08 14.6648C185.08 14.3201 184.994 14.0095 184.824 13.733C184.654 13.4527 184.411 13.233 184.097 13.0739C183.782 12.911 183.407 12.8295 182.972 12.8295H180.648V16.2386ZM180.648 11.3125H182.733C183.097 11.3125 183.424 11.2462 183.716 11.1136C184.008 10.9773 184.237 10.786 184.404 10.5398C184.574 10.2898 184.659 9.99432 184.659 9.65341C184.659 9.20265 184.5 8.83144 184.182 8.53977C183.868 8.24811 183.4 8.10227 182.779 8.10227H180.648V11.3125ZM191.313 6.36364V18H189.206V6.36364H191.313ZM193.746 18V6.36364H195.854V16.233H200.979V18H193.746ZM205.067 6.36364V18H202.959V6.36364H205.067ZM206.988 8.13068V6.36364H216.272V8.13068H212.675V18H210.585V8.13068H206.988ZM217.416 6.36364H219.797L222.644 11.5114H222.757L225.604 6.36364H227.985L223.752 13.6591V18H221.649V13.6591L217.416 6.36364Z" fill="#D8B7FB"/>
<path d="M1.45384 77.5881V74.5455H15.7891V77.5881H10.4453V92H6.79759V77.5881H1.45384ZM18.1499 92V74.5455H25.0362C26.3544 74.5455 27.4794 74.7812 28.4112 75.2528C29.3487 75.7187 30.0618 76.3807 30.5504 77.2386C31.0447 78.0909 31.2919 79.0937 31.2919 80.2472C31.2919 81.4062 31.0419 82.4034 30.5419 83.2386C30.0419 84.0682 29.3175 84.7045 28.3686 85.1477C27.4254 85.5909 26.2834 85.8125 24.9425 85.8125H20.3317V82.8466H24.3459C25.0504 82.8466 25.6357 82.75 26.1016 82.5568C26.5675 82.3636 26.9141 82.0739 27.1413 81.6875C27.3743 81.3011 27.4908 80.821 27.4908 80.2472C27.4908 79.6676 27.3743 79.179 27.1413 78.7812C26.9141 78.3835 26.5646 78.0824 26.093 77.8778C25.6271 77.6676 25.0391 77.5625 24.3288 77.5625H21.8402V92H18.1499ZM27.576 84.0568L31.9141 92H27.8402L23.5959 84.0568H27.576ZM44.6811 74.5455H48.3714V85.8807C48.3714 87.1534 48.0675 88.267 47.4595 89.2216C46.8572 90.1761 46.0135 90.9205 44.9283 91.4545C43.843 91.983 42.5788 92.2472 41.1357 92.2472C39.6868 92.2472 38.4197 91.983 37.3345 91.4545C36.2493 90.9205 35.4055 90.1761 34.8033 89.2216C34.201 88.267 33.8999 87.1534 33.8999 85.8807V74.5455H37.5902V85.5653C37.5902 86.2301 37.7351 86.821 38.0249 87.3381C38.3203 87.8551 38.7351 88.2614 39.2692 88.5568C39.8033 88.8523 40.4254 89 41.1357 89C41.8516 89 42.4737 88.8523 43.0021 88.5568C43.5362 88.2614 43.9482 87.8551 44.2379 87.3381C44.5334 86.821 44.6811 86.2301 44.6811 85.5653V74.5455ZM60.8764 79.5653C60.8082 78.8778 60.5156 78.3437 59.9986 77.9631C59.4815 77.5824 58.7798 77.392 57.8935 77.392C57.2912 77.392 56.7827 77.4773 56.3679 77.6477C55.9531 77.8125 55.6349 78.0426 55.4134 78.3381C55.1974 78.6335 55.0895 78.9688 55.0895 79.3438C55.0781 79.6562 55.1435 79.929 55.2855 80.1619C55.4332 80.3949 55.6349 80.5966 55.8906 80.767C56.1463 80.9318 56.4418 81.0767 56.777 81.2017C57.1122 81.321 57.4702 81.4233 57.8509 81.5085L59.419 81.8835C60.1804 82.054 60.8793 82.2812 61.5156 82.5653C62.152 82.8494 62.7031 83.1989 63.169 83.6136C63.6349 84.0284 63.9957 84.517 64.2514 85.0795C64.5128 85.642 64.6463 86.2869 64.652 87.0142C64.6463 88.0824 64.3736 89.0085 63.8338 89.7926C63.2997 90.571 62.527 91.1761 61.5156 91.608C60.5099 92.0341 59.2969 92.2472 57.8764 92.2472C56.4673 92.2472 55.2401 92.0312 54.1946 91.5994C53.1548 91.1676 52.3423 90.5284 51.7571 89.6818C51.1776 88.8295 50.8736 87.7756 50.8452 86.5199H54.4162C54.456 87.1051 54.6236 87.5937 54.919 87.9858C55.2202 88.3722 55.6207 88.6648 56.1207 88.8636C56.6264 89.0568 57.1974 89.1534 57.8338 89.1534C58.4588 89.1534 59.0014 89.0625 59.4616 88.8807C59.9276 88.6989 60.2884 88.446 60.544 88.1222C60.7997 87.7983 60.9276 87.4261 60.9276 87.0057C60.9276 86.6136 60.8111 86.2841 60.5781 86.017C60.3509 85.75 60.0156 85.5227 59.5724 85.3352C59.1349 85.1477 58.598 84.9773 57.9616 84.8239L56.0611 84.3466C54.5895 83.9886 53.4276 83.429 52.5753 82.6676C51.723 81.9062 51.2997 80.8807 51.3054 79.5909C51.2997 78.5341 51.581 77.6108 52.1491 76.821C52.723 76.0312 53.5099 75.4148 54.5099 74.9716C55.5099 74.5284 56.6463 74.3068 57.919 74.3068C59.2145 74.3068 60.3452 74.5284 61.3111 74.9716C62.2827 75.4148 63.0384 76.0312 63.5781 76.821C64.1179 77.6108 64.3963 78.5256 64.4134 79.5653H60.8764ZM66.4695 77.5881V74.5455H80.8047V77.5881H75.4609V92H71.8132V77.5881H66.4695ZM87.0945 92L82.1001 74.5455H86.1314L89.0206 86.6733H89.1655L92.353 74.5455H95.8047L98.9837 86.6989H99.1371L102.026 74.5455H106.058L101.063 92H97.4666L94.1428 80.5881H94.0064L90.6911 92H87.0945ZM123.088 83.2727C123.088 85.1761 122.727 86.7955 122.006 88.1307C121.29 89.4659 120.313 90.4858 119.074 91.1903C117.841 91.8892 116.455 92.2386 114.915 92.2386C113.364 92.2386 111.972 91.8864 110.739 91.1818C109.506 90.4773 108.531 89.4574 107.815 88.1222C107.099 86.7869 106.741 85.1705 106.741 83.2727C106.741 81.3693 107.099 79.75 107.815 78.4148C108.531 77.0795 109.506 76.0625 110.739 75.3636C111.972 74.6591 113.364 74.3068 114.915 74.3068C116.455 74.3068 117.841 74.6591 119.074 75.3636C120.313 76.0625 121.29 77.0795 122.006 78.4148C122.727 79.75 123.088 81.3693 123.088 83.2727ZM119.347 83.2727C119.347 82.0398 119.162 81 118.793 80.1534C118.429 79.3068 117.915 78.6648 117.25 78.2273C116.585 77.7898 115.807 77.571 114.915 77.571C114.023 77.571 113.244 77.7898 112.58 78.2273C111.915 78.6648 111.398 79.3068 111.028 80.1534C110.665 81 110.483 82.0398 110.483 83.2727C110.483 84.5057 110.665 85.5455 111.028 86.392C111.398 87.2386 111.915 87.8807 112.58 88.3182C113.244 88.7557 114.023 88.9744 114.915 88.9744C115.807 88.9744 116.585 88.7557 117.25 88.3182C117.915 87.8807 118.429 87.2386 118.793 86.392C119.162 85.5455 119.347 84.5057 119.347 83.2727ZM125.822 92V74.5455H132.708C134.026 74.5455 135.151 74.7812 136.083 75.2528C137.021 75.7187 137.734 76.3807 138.222 77.2386C138.717 78.0909 138.964 79.0937 138.964 80.2472C138.964 81.4062 138.714 82.4034 138.214 83.2386C137.714 84.0682 136.989 84.7045 136.04 85.1477C135.097 85.5909 133.955 85.8125 132.614 85.8125H128.004V82.8466H132.018C132.722 82.8466 133.308 82.75 133.773 82.5568C134.239 82.3636 134.586 82.0739 134.813 81.6875C135.046 81.3011 135.163 80.821 135.163 80.2472C135.163 79.6676 135.046 79.179 134.813 78.7812C134.586 78.3835 134.237 78.0824 133.765 77.8778C133.299 77.6676 132.711 77.5625 132.001 77.5625H129.512V92H125.822ZM135.248 84.0568L139.586 92H135.512L131.268 84.0568H135.248ZM140.907 77.5881V74.5455H155.242V77.5881H149.898V92H146.251V77.5881H140.907ZM157.603 92V74.5455H161.293V81.7472H168.785V74.5455H172.467V92H168.785V84.7898H161.293V92H157.603ZM174.487 74.5455H178.62L182.6 82.0625H182.771L186.751 74.5455H190.884L184.518 85.8295V92H180.853V85.8295L174.487 74.5455ZM203.739 92.2557C202.534 92.2557 201.494 92.0398 200.619 91.608C199.744 91.1761 199.071 90.5909 198.599 89.8523C198.134 89.108 197.901 88.2784 197.901 87.3636C197.901 86.6818 198.037 86.0767 198.31 85.5483C198.582 85.0199 198.963 84.5341 199.452 84.0909C199.94 83.642 200.509 83.196 201.156 82.7528L204.54 80.5284C204.977 80.25 205.298 79.9574 205.503 79.6506C205.707 79.3381 205.81 79 205.81 78.6364C205.81 78.2898 205.67 77.9687 205.392 77.6733C205.114 77.3778 204.719 77.233 204.207 77.2386C203.866 77.2386 203.571 77.3153 203.321 77.4688C203.071 77.6165 202.875 77.8125 202.733 78.0568C202.597 78.2955 202.528 78.5625 202.528 78.858C202.528 79.2216 202.631 79.5909 202.835 79.9659C203.04 80.3409 203.313 80.7386 203.653 81.1591C203.994 81.5739 204.366 82.0227 204.77 82.5057L213.045 92H209.261L202.358 84.3125C201.903 83.7955 201.449 83.2557 200.994 82.6932C200.545 82.125 200.17 81.5227 199.869 80.8864C199.568 80.2443 199.418 79.5483 199.418 78.7983C199.418 77.9517 199.614 77.1903 200.006 76.5142C200.403 75.8381 200.96 75.304 201.676 74.9119C202.392 74.5142 203.227 74.3153 204.182 74.3153C205.114 74.3153 205.918 74.5057 206.594 74.8864C207.276 75.2614 207.798 75.7614 208.162 76.3864C208.531 77.0057 208.716 77.6875 208.716 78.4318C208.716 79.2557 208.511 80.0028 208.102 80.6733C207.699 81.3381 207.131 81.9347 206.398 82.4631L202.835 85.0284C202.352 85.3807 201.994 85.7415 201.761 86.1108C201.534 86.4744 201.42 86.8239 201.42 87.1591C201.42 87.5739 201.523 87.946 201.727 88.2756C201.932 88.6051 202.222 88.8665 202.597 89.0597C202.972 89.2472 203.412 89.3409 203.918 89.3409C204.531 89.3409 205.136 89.2017 205.733 88.9233C206.335 88.6392 206.881 88.2386 207.369 87.7216C207.864 87.1989 208.259 86.5795 208.554 85.8636C208.849 85.1477 208.997 84.3551 208.997 83.4858H212.006C212.006 84.554 211.889 85.517 211.656 86.375C211.423 87.2273 211.099 87.9716 210.685 88.608C210.27 89.2386 209.795 89.7557 209.261 90.1591C209.091 90.267 208.926 90.3693 208.767 90.4659C208.608 90.5625 208.443 90.6648 208.273 90.7727C207.625 91.2955 206.901 91.6733 206.099 91.9062C205.304 92.1392 204.517 92.2557 203.739 92.2557ZM224.11 92L219.116 74.5455H223.147L226.036 86.6733H226.181L229.369 74.5455H232.82L235.999 86.6989H236.153L239.042 74.5455H243.073L238.079 92H234.482L231.158 80.5881H231.022L227.707 92H224.11ZM260.104 83.2727C260.104 85.1761 259.743 86.7955 259.021 88.1307C258.305 89.4659 257.328 90.4858 256.089 91.1903C254.857 91.8892 253.47 92.2386 251.93 92.2386C250.379 92.2386 248.987 91.8864 247.754 91.1818C246.521 90.4773 245.547 89.4574 244.831 88.1222C244.115 86.7869 243.757 85.1705 243.757 83.2727C243.757 81.3693 244.115 79.75 244.831 78.4148C245.547 77.0795 246.521 76.0625 247.754 75.3636C248.987 74.6591 250.379 74.3068 251.93 74.3068C253.47 74.3068 254.857 74.6591 256.089 75.3636C257.328 76.0625 258.305 77.0795 259.021 78.4148C259.743 79.75 260.104 81.3693 260.104 83.2727ZM256.362 83.2727C256.362 82.0398 256.178 81 255.808 80.1534C255.445 79.3068 254.93 78.6648 254.266 78.2273C253.601 77.7898 252.822 77.571 251.93 77.571C251.038 77.571 250.26 77.7898 249.595 78.2273C248.93 78.6648 248.413 79.3068 248.044 80.1534C247.68 81 247.499 82.0398 247.499 83.2727C247.499 84.5057 247.68 85.5455 248.044 86.392C248.413 87.2386 248.93 87.8807 249.595 88.3182C250.26 88.7557 251.038 88.9744 251.93 88.9744C252.822 88.9744 253.601 88.7557 254.266 88.3182C254.93 87.8807 255.445 87.2386 255.808 86.392C256.178 85.5455 256.362 84.5057 256.362 83.2727ZM262.837 92V74.5455H269.724C271.042 74.5455 272.167 74.7812 273.099 75.2528C274.036 75.7187 274.749 76.3807 275.238 77.2386C275.732 78.0909 275.979 79.0937 275.979 80.2472C275.979 81.4062 275.729 82.4034 275.229 83.2386C274.729 84.0682 274.005 84.7045 273.056 85.1477C272.113 85.5909 270.971 85.8125 269.63 85.8125H265.019V82.8466H269.033C269.738 82.8466 270.323 82.75 270.789 82.5568C271.255 82.3636 271.602 82.0739 271.829 81.6875C272.062 81.3011 272.178 80.821 272.178 80.2472C272.178 79.6676 272.062 79.179 271.829 78.7812C271.602 78.3835 271.252 78.0824 270.781 77.8778C270.315 77.6676 269.727 77.5625 269.016 77.5625H266.528V92H262.837ZM272.263 84.0568L276.602 92H272.528L268.283 84.0568H272.263ZM277.923 77.5881V74.5455H292.258V77.5881H286.914V92H283.266V77.5881H277.923ZM294.619 92V74.5455H298.309V81.7472H305.8V74.5455H309.482V92H305.8V84.7898H298.309V92H294.619ZM311.502 74.5455H315.636L319.616 82.0625H319.786L323.766 74.5455H327.9L321.533 85.8295V92H317.869V85.8295L311.502 74.5455Z" fill="#3B0A61"/>
<path d="M95.4716 151.562C95.4186 151.066 95.1951 150.68 94.8011 150.403C94.411 150.127 93.9034 149.989 93.2784 149.989C92.839 149.989 92.4621 150.055 92.1477 150.188C91.8333 150.32 91.5928 150.5 91.4261 150.727C91.2595 150.955 91.1742 151.214 91.1705 151.506C91.1705 151.748 91.2254 151.958 91.3352 152.136C91.4489 152.314 91.6023 152.466 91.7955 152.591C91.9886 152.712 92.2027 152.814 92.4375 152.898C92.6723 152.981 92.9091 153.051 93.1477 153.108L94.2386 153.381C94.678 153.483 95.1004 153.621 95.5057 153.795C95.9148 153.97 96.2803 154.189 96.6023 154.455C96.928 154.72 97.1856 155.04 97.375 155.415C97.5644 155.79 97.6591 156.229 97.6591 156.733C97.6591 157.415 97.4848 158.015 97.1364 158.534C96.7879 159.049 96.2841 159.453 95.625 159.744C94.9697 160.032 94.1761 160.176 93.2443 160.176C92.339 160.176 91.553 160.036 90.8864 159.756C90.2235 159.475 89.7045 159.066 89.3295 158.528C88.9583 157.991 88.7576 157.335 88.7273 156.562H90.8011C90.8314 156.968 90.9564 157.305 91.1761 157.574C91.3958 157.843 91.6818 158.044 92.0341 158.176C92.3902 158.309 92.7879 158.375 93.2273 158.375C93.6856 158.375 94.0871 158.307 94.4318 158.17C94.7803 158.03 95.053 157.837 95.25 157.591C95.447 157.341 95.5473 157.049 95.5511 156.716C95.5473 156.413 95.4583 156.163 95.2841 155.966C95.1098 155.765 94.8655 155.598 94.5511 155.466C94.2405 155.33 93.8769 155.208 93.4602 155.102L92.1364 154.761C91.178 154.515 90.4205 154.142 89.8636 153.642C89.3106 153.138 89.0341 152.47 89.0341 151.636C89.0341 150.951 89.2197 150.35 89.5909 149.835C89.9659 149.32 90.4754 148.92 91.1193 148.636C91.7633 148.348 92.4924 148.205 93.3068 148.205C94.1326 148.205 94.8561 148.348 95.4773 148.636C96.1023 148.92 96.5928 149.316 96.9489 149.824C97.3049 150.328 97.4886 150.907 97.5 151.562H95.4716ZM100.995 160H98.7452L102.842 148.364H105.444L109.546 160H107.296L104.188 150.75H104.097L100.995 160ZM101.069 155.438H107.205V157.131H101.069V155.438ZM111.229 160V148.364H118.684V150.131H113.337V153.29H118.172V155.057H113.337V160H111.229ZM120.754 160V148.364H128.322V150.131H122.862V153.29H127.93V155.057H122.862V158.233H128.368V160H120.754ZM130.111 150.131V148.364H139.395V150.131H135.799V160H133.708V150.131H130.111ZM140.54 148.364H142.92L145.767 153.511H145.881L148.727 148.364H151.108L146.875 155.659V160H144.773V155.659L140.54 148.364ZM160.256 160.17C159.461 160.17 158.777 160.027 158.205 159.739C157.633 159.451 157.192 159.062 156.881 158.574C156.574 158.081 156.421 157.527 156.421 156.909C156.421 156.443 156.515 156.03 156.705 155.67C156.898 155.311 157.163 154.977 157.5 154.67C157.841 154.364 158.235 154.059 158.682 153.756L160.745 152.352C161.048 152.155 161.277 151.947 161.432 151.727C161.591 151.508 161.671 151.25 161.671 150.955C161.671 150.705 161.565 150.468 161.353 150.244C161.144 150.021 160.856 149.909 160.489 149.909C160.243 149.909 160.025 149.968 159.836 150.085C159.65 150.199 159.504 150.348 159.398 150.534C159.296 150.72 159.245 150.917 159.245 151.125C159.245 151.379 159.315 151.636 159.455 151.898C159.599 152.159 159.784 152.43 160.012 152.71C160.243 152.991 160.489 153.288 160.75 153.602L166.211 160H163.983L159.449 154.807C159.112 154.413 158.786 154.025 158.472 153.642C158.161 153.259 157.906 152.862 157.705 152.449C157.508 152.032 157.409 151.581 157.409 151.097C157.409 150.547 157.536 150.057 157.79 149.625C158.044 149.189 158.398 148.847 158.853 148.597C159.311 148.347 159.847 148.222 160.461 148.222C161.074 148.222 161.601 148.343 162.04 148.585C162.479 148.828 162.818 149.15 163.057 149.551C163.296 149.953 163.415 150.39 163.415 150.864C163.415 151.413 163.279 151.905 163.006 152.341C162.733 152.773 162.354 153.165 161.87 153.517L159.517 155.239C159.131 155.519 158.854 155.803 158.688 156.091C158.521 156.375 158.438 156.617 158.438 156.818C158.438 157.125 158.515 157.403 158.671 157.653C158.826 157.903 159.044 158.104 159.324 158.256C159.608 158.403 159.94 158.477 160.318 158.477C160.735 158.477 161.146 158.384 161.551 158.199C161.957 158.009 162.326 157.741 162.659 157.392C162.993 157.044 163.258 156.627 163.455 156.142C163.652 155.653 163.75 155.112 163.75 154.517H165.517C165.517 155.252 165.436 155.892 165.273 156.438C165.11 156.979 164.9 157.438 164.642 157.812C164.385 158.184 164.112 158.481 163.824 158.705C163.733 158.769 163.646 158.833 163.563 158.898C163.479 158.962 163.392 159.027 163.301 159.091C162.892 159.462 162.413 159.735 161.864 159.909C161.318 160.083 160.782 160.17 160.256 160.17ZM171.748 160V148.364H176.111C177.005 148.364 177.755 148.53 178.361 148.864C178.971 149.197 179.431 149.655 179.742 150.239C180.056 150.818 180.214 151.477 180.214 152.216C180.214 152.962 180.056 153.625 179.742 154.205C179.428 154.784 178.964 155.241 178.35 155.574C177.736 155.903 176.981 156.068 176.083 156.068H173.191V154.335H175.799C176.322 154.335 176.75 154.244 177.083 154.062C177.416 153.881 177.662 153.631 177.822 153.312C177.984 152.994 178.066 152.629 178.066 152.216C178.066 151.803 177.984 151.439 177.822 151.125C177.662 150.811 177.414 150.566 177.077 150.392C176.744 150.214 176.314 150.125 175.787 150.125H173.856V160H171.748ZM182.195 160V148.364H186.558C187.452 148.364 188.202 148.519 188.808 148.83C189.418 149.14 189.878 149.576 190.189 150.136C190.503 150.693 190.661 151.343 190.661 152.085C190.661 152.831 190.501 153.479 190.183 154.028C189.869 154.574 189.405 154.996 188.791 155.295C188.178 155.591 187.424 155.739 186.53 155.739H183.422V153.989H186.246C186.768 153.989 187.196 153.917 187.53 153.773C187.863 153.625 188.109 153.411 188.268 153.131C188.431 152.847 188.513 152.498 188.513 152.085C188.513 151.672 188.431 151.32 188.268 151.028C188.106 150.733 187.857 150.509 187.524 150.358C187.191 150.203 186.761 150.125 186.234 150.125H184.303V160H182.195ZM188.206 154.727L191.087 160H188.734L185.905 154.727H188.206ZM194.859 148.364V160H192.751V148.364H194.859ZM198.848 148.364L201.877 157.523H201.996L205.019 148.364H207.337L203.235 160H200.632L196.536 148.364H198.848ZM209.155 160H206.905L211.001 148.364H213.603L217.706 160H215.456L212.348 150.75H212.257L209.155 160ZM209.228 155.438H215.365V157.131H209.228V155.438ZM228.802 152.29H226.677C226.616 151.941 226.504 151.633 226.341 151.364C226.179 151.091 225.976 150.86 225.734 150.67C225.491 150.481 225.215 150.339 224.904 150.244C224.597 150.146 224.266 150.097 223.91 150.097C223.277 150.097 222.716 150.256 222.228 150.574C221.739 150.888 221.357 151.35 221.08 151.96C220.804 152.566 220.665 153.307 220.665 154.182C220.665 155.072 220.804 155.822 221.08 156.432C221.36 157.038 221.743 157.496 222.228 157.807C222.716 158.114 223.275 158.267 223.904 158.267C224.252 158.267 224.578 158.222 224.881 158.131C225.188 158.036 225.463 157.898 225.705 157.716C225.951 157.534 226.158 157.311 226.324 157.045C226.495 156.78 226.612 156.477 226.677 156.136L228.802 156.148C228.722 156.701 228.55 157.22 228.285 157.705C228.023 158.189 227.68 158.617 227.256 158.989C226.832 159.356 226.336 159.644 225.768 159.852C225.199 160.057 224.569 160.159 223.876 160.159C222.853 160.159 221.94 159.922 221.137 159.449C220.334 158.975 219.701 158.292 219.239 157.398C218.777 156.504 218.546 155.432 218.546 154.182C218.546 152.928 218.779 151.856 219.245 150.966C219.711 150.072 220.345 149.388 221.148 148.915C221.951 148.441 222.86 148.205 223.876 148.205C224.523 148.205 225.126 148.295 225.682 148.477C226.239 148.659 226.735 148.926 227.171 149.278C227.607 149.627 227.965 150.055 228.245 150.562C228.529 151.066 228.715 151.642 228.802 152.29ZM230.087 148.364H232.467L235.314 153.511H235.428L238.274 148.364H240.655L236.422 155.659V160H234.32V155.659L230.087 148.364Z" fill="#D8B7FB"/>
</svg>
