<svg width="25" height="24" viewBox="0 0 25 24" fill="none" xmlns="http://www.w3.org/2000/svg">
<path d="M18 6C18 6.27614 17.7761 6.5 17.5 6.5C17.2239 6.5 17 6.27614 17 6M18 6C18 5.72386 17.7761 5.5 17.5 5.5C17.2239 5.5 17 5.72386 17 6M18 6H17M18 17C18 17.2761 17.7761 17.5 17.5 17.5C17.2239 17.5 17 17.2761 17 17M18 17C18 16.7239 17.7761 16.5 17.5 16.5C17.2239 16.5 17 16.7239 17 17M18 17H17M7.5 21H17.5C18.43 21 18.895 21 19.2765 20.8978C20.3117 20.6204 21.1204 19.8117 21.3978 18.7765C21.5 18.395 21.5 17.93 21.5 17V17C21.5 16.07 21.5 15.605 21.3978 15.2235C21.1204 14.1883 20.3117 13.3796 19.2765 13.1022C18.895 13 18.43 13 17.5 13H7.5C6.57003 13 6.10504 13 5.72354 13.1022C4.68827 13.3796 3.87962 14.1883 3.60222 15.2235C3.5 15.605 3.5 16.07 3.5 17V17C3.5 17.93 3.5 18.395 3.60222 18.7765C3.87962 19.8117 4.68827 20.6204 5.72354 20.8978C6.10504 21 6.57003 21 7.5 21ZM7.5 10H17.5C18.43 10 18.895 10 19.2765 9.89778C20.3117 9.62038 21.1204 8.81173 21.3978 7.77646C21.5 7.39496 21.5 6.92997 21.5 6V6C21.5 5.07003 21.5 4.60504 21.3978 4.22354C21.1204 3.18827 20.3117 2.37962 19.2765 2.10222C18.895 2 18.43 2 17.5 2H7.5C6.57003 2 6.10504 2 5.72354 2.10222C4.68827 2.37962 3.87962 3.18827 3.60222 4.22354C3.5 4.60504 3.5 5.07003 3.5 6V6C3.5 6.92997 3.5 7.39496 3.60222 7.77646C3.87962 8.81173 4.68827 9.62038 5.72354 9.89778C6.10504 10 6.57003 10 7.5 10Z" stroke="#1D1B20" stroke-width="1.5" stroke-linecap="round" stroke-linejoin="round"/>
</svg>
