<svg width="26" height="24" viewBox="0 0 26 24" fill="none" xmlns="http://www.w3.org/2000/svg">
<path fill-rule="evenodd" clip-rule="evenodd" d="M10.5681 1.26916C10.77 1.42515 10.948 1.65501 11.3042 2.11474L11.727 2.66049C12.0285 3.04971 12.5076 3.24997 13 3.24997C13.4924 3.24997 13.9716 3.04968 14.2732 2.6604L14.6959 2.1148C15.052 1.65518 15.23 1.42537 15.4318 1.26941C15.9302 0.884155 16.581 0.756263 17.1882 0.924258C17.434 0.992267 17.6858 1.13762 18.1893 1.42832L19.5625 2.22118C20.0643 2.51089 20.3152 2.65575 20.4965 2.83383C20.9469 3.27612 21.162 3.90502 21.0769 4.53044C21.0426 4.78227 20.933 5.05043 20.7137 5.58675L20.7137 5.58678L20.4522 6.22634C20.2657 6.6827 20.3315 7.19672 20.5784 7.62346C20.825 8.04963 21.2387 8.36649 21.7265 8.43302L22.4104 8.52627C22.985 8.60462 23.2722 8.6438 23.5076 8.74015C24.0915 8.97915 24.5284 9.47965 24.6863 10.0905C24.75 10.3367 24.75 10.6267 24.75 11.2066V12.7934C24.75 13.3733 24.75 13.6632 24.6863 13.9095C24.5284 14.5203 24.0915 15.0208 23.5077 15.2598C23.2723 15.3562 22.985 15.3953 22.4104 15.4737L22.4104 15.4737L21.7265 15.5669C21.2387 15.6335 20.825 15.9503 20.5784 16.3765C20.3315 16.8032 20.2657 17.3172 20.4523 17.7735L20.7137 18.4131L20.7137 18.4131C20.933 18.9494 21.0426 19.2176 21.0769 19.4694C21.162 20.0949 20.9469 20.7238 20.4966 21.166C20.3152 21.3441 20.0644 21.489 19.5626 21.7787L19.5626 21.7787L18.1892 22.5716C17.6858 22.8623 17.434 23.0076 17.1883 23.0756C16.5811 23.2436 15.9302 23.1157 15.4318 22.7304C15.23 22.5745 15.052 22.3447 14.6959 21.8851L14.2733 21.3396C13.9717 20.9503 13.4925 20.75 13 20.75C12.5076 20.75 12.0284 20.9503 11.7269 21.3395L11.3041 21.8852C10.948 22.3449 10.77 22.5747 10.5681 22.7307C10.0697 23.1159 9.41897 23.2438 8.81185 23.0758C8.56602 23.0078 8.31423 22.8624 7.81066 22.5717L7.81064 22.5717L6.43749 21.7789C5.93566 21.4892 5.68474 21.3443 5.5034 21.1662C5.05312 20.7239 4.83802 20.095 4.92312 19.4696C4.9574 19.2178 5.06703 18.9496 5.28631 18.4132L5.54777 17.7736C5.73433 17.3173 5.66855 16.8032 5.42162 16.3765C5.17502 15.9503 4.76132 15.6335 4.27345 15.5669L3.5896 15.4737C3.01503 15.3953 2.72775 15.3562 2.49235 15.2598C1.90847 15.0208 1.47159 14.5203 1.31367 13.9095C1.25 13.6632 1.25 13.3733 1.25 12.7934V11.2066C1.25 10.6267 1.25 10.3367 1.31367 10.0905C1.47159 9.47965 1.90847 8.97915 2.49235 8.74015C2.72775 8.6438 3.01503 8.60462 3.58959 8.52627L4.27342 8.43302C4.7613 8.36649 5.17502 8.04961 5.42163 7.62343C5.66857 7.19667 5.73436 6.68262 5.54779 6.22623L5.28633 5.58666C5.06705 5.05027 4.95741 4.78207 4.92314 4.53021C4.83804 3.90483 5.05314 3.27596 5.50342 2.83369C5.68475 2.65558 5.93568 2.51071 6.43752 2.22097L7.81061 1.42822C8.31424 1.13745 8.56606 0.992061 8.81191 0.924051C9.419 0.756114 10.0697 0.883987 10.5681 1.26916ZM12.9999 15C14.6568 15 15.9999 13.6569 15.9999 12C15.9999 10.3431 14.6568 9 12.9999 9C11.3431 9 9.99992 10.3431 9.99992 12C9.99992 13.6569 11.3431 15 12.9999 15Z" fill="#4F03E0"/>
<path d="M11.3042 2.11474L11.8971 1.65542L11.8971 1.65542L11.3042 2.11474ZM10.5681 1.26916L10.1095 1.8626L10.1095 1.8626L10.5681 1.26916ZM11.727 2.66049L11.1341 3.11981L11.1341 3.11981L11.727 2.66049ZM14.2732 2.6604L14.8661 3.11972L14.2732 2.6604ZM14.6959 2.1148L14.103 1.65548V1.65548L14.6959 2.1148ZM15.4318 1.26941L14.9731 0.676L14.9731 0.676001L15.4318 1.26941ZM17.1882 0.924258L17.3882 0.201417V0.201417L17.1882 0.924258ZM18.1893 1.42832L17.8143 2.07784V2.07784L18.1893 1.42832ZM19.5625 2.22118L19.1875 2.8707L19.5625 2.22118ZM20.4965 2.83383L19.971 3.36892L20.4965 2.83383ZM21.0769 4.53044L21.82 4.63158V4.63158L21.0769 4.53044ZM20.7137 5.58675L21.3845 5.92216C21.393 5.90526 21.4008 5.88805 21.4079 5.87055L20.7137 5.58675ZM20.7137 5.58678L20.0429 5.25137C20.0344 5.26827 20.0266 5.28548 20.0195 5.30297L20.7137 5.58678ZM20.4522 6.22634L19.758 5.94253V5.94253L20.4522 6.22634ZM20.5784 7.62346L19.9292 7.99908L19.9292 7.99909L20.5784 7.62346ZM21.7265 8.43302L21.8279 7.68989L21.7265 8.43302ZM22.4104 8.52627L22.3091 9.26939L22.4104 8.52627ZM23.5076 8.74015L23.2235 9.43425L23.5076 8.74015ZM24.6863 10.0905L23.9602 10.2782H23.9602L24.6863 10.0905ZM24.6863 13.9095L23.9602 13.7217V13.7218L24.6863 13.9095ZM23.5077 15.2598L23.7918 15.9539L23.7918 15.9539L23.5077 15.2598ZM22.4104 15.4737L22.3091 14.7306C22.3017 14.7316 22.2944 14.7327 22.2871 14.7339L22.4104 15.4737ZM22.4104 15.4737L22.5117 16.2168C22.5191 16.2158 22.5264 16.2147 22.5337 16.2135L22.4104 15.4737ZM21.7265 15.5669L21.8278 16.3101H21.8278L21.7265 15.5669ZM20.5784 16.3765L21.2276 16.7521V16.7521L20.5784 16.3765ZM20.4523 17.7735L21.1465 17.4897L21.1465 17.4897L20.4523 17.7735ZM20.7137 18.4131L20.0195 18.6969C20.0266 18.7144 20.0344 18.7316 20.0429 18.7485L20.7137 18.4131ZM20.7137 18.4131L21.408 18.1293C21.4008 18.1118 21.393 18.0946 21.3845 18.0777L20.7137 18.4131ZM21.0769 19.4694L21.82 19.3683V19.3683L21.0769 19.4694ZM20.4966 21.166L21.0221 21.7011H21.0221L20.4966 21.166ZM19.5626 21.7787L19.898 22.4495C19.9114 22.4428 19.9246 22.4357 19.9376 22.4282L19.5626 21.7787ZM19.5626 21.7787L19.2271 21.1079C19.2137 21.1146 19.2005 21.1217 19.1876 21.1292L19.5626 21.7787ZM18.1892 22.5716L17.8142 21.9221L18.1892 22.5716ZM17.1883 23.0756L16.9882 22.3528L17.1883 23.0756ZM15.4318 22.7304L15.8904 22.137H15.8904L15.4318 22.7304ZM14.6959 21.8851L15.2888 21.4258H15.2888L14.6959 21.8851ZM14.2733 21.3396L13.6804 21.7989L14.2733 21.3396ZM11.7269 21.3395L12.3198 21.7988H12.3198L11.7269 21.3395ZM11.3041 21.8852L10.7113 21.4259L11.3041 21.8852ZM10.5681 22.7307L11.0268 23.3241L11.0268 23.3241L10.5681 22.7307ZM8.81185 23.0758L8.61187 23.7987H8.61187L8.81185 23.0758ZM7.81066 22.5717L7.39463 23.1957C7.40803 23.2047 7.42171 23.2132 7.43566 23.2212L7.81066 22.5717ZM7.81064 22.5717L8.22667 21.9476C8.21327 21.9387 8.19959 21.9302 8.18564 21.9222L7.81064 22.5717ZM6.43749 21.7789L6.06249 22.4284L6.43749 21.7789ZM5.5034 21.1662L4.97786 21.7013H4.97786L5.5034 21.1662ZM4.92312 19.4696L4.17997 19.3685L4.92312 19.4696ZM5.28631 18.4132L4.59208 18.1294H4.59208L5.28631 18.4132ZM5.54777 17.7736L4.85354 17.4898L4.85354 17.4898L5.54777 17.7736ZM5.42162 16.3765L4.77246 16.7521H4.77246L5.42162 16.3765ZM4.27345 15.5669L4.17212 16.3101H4.17212L4.27345 15.5669ZM3.5896 15.4737L3.69093 14.7306H3.69093L3.5896 15.4737ZM2.49235 15.2598L2.77647 14.5657L2.77647 14.5657L2.49235 15.2598ZM1.31367 13.9095L2.03979 13.7217V13.7217L1.31367 13.9095ZM1.31367 10.0905L2.03979 10.2782L2.03979 10.2782L1.31367 10.0905ZM2.49235 8.74015L2.20823 8.04605L2.20823 8.04605L2.49235 8.74015ZM3.58959 8.52627L3.69093 9.26939H3.69093L3.58959 8.52627ZM4.27342 8.43302L4.37476 9.17614L4.37476 9.17614L4.27342 8.43302ZM5.42163 7.62343L4.77248 7.2478H4.77248L5.42163 7.62343ZM5.54779 6.22623L6.24202 5.94242V5.94242L5.54779 6.22623ZM5.28633 5.58666L4.5921 5.87046V5.87046L5.28633 5.58666ZM4.92314 4.53021L5.66629 4.42909V4.42909L4.92314 4.53021ZM5.50342 2.83369L6.02896 3.36876L6.02896 3.36876L5.50342 2.83369ZM6.43752 2.22097L6.81252 2.87049L6.43752 2.22097ZM7.81061 1.42822L8.18561 2.07774L8.18561 2.07774L7.81061 1.42822ZM8.81191 0.924051L8.61195 0.201198L8.61195 0.201198L8.81191 0.924051ZM11.8971 1.65542C11.5684 1.23107 11.323 0.904689 11.0268 0.675725L10.1095 1.8626C10.2169 1.94561 10.3277 2.07895 10.7113 2.57406L11.8971 1.65542ZM12.3199 2.20117L11.8971 1.65542L10.7113 2.57406L11.1341 3.11981L12.3199 2.20117ZM13 2.49997C12.7024 2.49997 12.458 2.37947 12.3199 2.20117L11.1341 3.11981C11.599 3.71994 12.3129 3.99997 13 3.99997V2.49997ZM13.6803 2.20108C13.5421 2.37944 13.2977 2.49997 13 2.49997V3.99997C13.6871 3.99997 14.4011 3.71992 14.8661 3.11972L13.6803 2.20108ZM14.103 1.65548L13.6803 2.20108L14.8661 3.11972L15.2888 2.57412L14.103 1.65548ZM14.9731 0.676001C14.6769 0.904928 14.4317 1.23123 14.103 1.65548L15.2888 2.57412C15.6723 2.07913 15.7831 1.94581 15.8904 1.86282L14.9731 0.676001ZM17.3882 0.201417C16.5534 -0.0295763 15.6585 0.146276 14.9731 0.676L15.8904 1.86282C16.202 1.62203 16.6087 1.5421 16.9882 1.6471L17.3882 0.201417ZM18.5643 0.778804C18.0995 0.510472 17.749 0.301244 17.3882 0.201417L16.9882 1.6471C17.119 1.68329 17.272 1.76477 17.8143 2.07784L18.5643 0.778804ZM19.9375 1.57166L18.5643 0.778804L17.8143 2.07784L19.1875 2.8707L19.9375 1.57166ZM21.0221 2.29875C20.7559 2.03735 20.4007 1.83908 19.9375 1.57166L19.1875 2.8707C19.7279 3.1827 19.8745 3.27414 19.971 3.36892L21.0221 2.29875ZM21.82 4.63158C21.937 3.77163 21.6413 2.90689 21.0221 2.29875L19.971 3.36892C20.2525 3.64534 20.3869 4.03841 20.3337 4.42929L21.82 4.63158ZM21.4079 5.87055C21.6103 5.3755 21.7697 5.00123 21.82 4.63158L20.3337 4.42929C20.3155 4.56331 20.2556 4.72536 20.0195 5.30295L21.4079 5.87055ZM21.3845 5.92219L21.3845 5.92216L20.0429 5.25134L20.0429 5.25137L21.3845 5.92219ZM21.1465 6.51014L21.4079 5.87058L20.0195 5.30297L19.758 5.94253L21.1465 6.51014ZM21.2275 7.24783C21.0786 6.99038 21.0608 6.7198 21.1465 6.51014L19.758 5.94253C19.4706 6.6456 19.5843 7.40306 19.9292 7.99908L21.2275 7.24783ZM21.8279 7.68989C21.6057 7.6596 21.3777 7.5073 21.2275 7.24783L19.9292 7.99909C20.2723 8.59196 20.8716 9.07338 21.6252 9.17614L21.8279 7.68989ZM22.5117 7.78315L21.8279 7.68989L21.6252 9.17614L22.3091 9.26939L22.5117 7.78315ZM23.7918 8.04605C23.4462 7.90461 23.0421 7.85547 22.5117 7.78315L22.3091 9.26939C22.9279 9.35377 23.0983 9.38298 23.2235 9.43425L23.7918 8.04605ZM25.4125 9.90274C25.1953 9.06286 24.5946 8.37468 23.7918 8.04605L23.2235 9.43425C23.5885 9.58363 23.8615 9.89644 23.9602 10.2782L25.4125 9.90274ZM25.5 11.2066C25.5 10.6713 25.5059 10.2642 25.4125 9.90274L23.9602 10.2782C23.9941 10.4093 24 10.582 24 11.2066H25.5ZM25.5 12.7934V11.2066H24V12.7934H25.5ZM25.4125 14.0972C25.5059 13.7357 25.5 13.3287 25.5 12.7934H24C24 13.4179 23.9941 13.5907 23.9602 13.7217L25.4125 14.0972ZM23.7918 15.9539C24.5946 15.6253 25.1953 14.9371 25.4125 14.0972L23.9602 13.7218C23.8615 14.1035 23.5885 14.4163 23.2235 14.5657L23.7918 15.9539ZM22.5118 16.2168C23.0421 16.1445 23.4462 16.0953 23.7918 15.9539L23.2235 14.5657C23.0983 14.617 22.9279 14.6462 22.3091 14.7306L22.5118 16.2168ZM22.5337 16.2135L22.5337 16.2135L22.2871 14.7339L22.2871 14.7339L22.5337 16.2135ZM21.8278 16.3101L22.5117 16.2168L22.3091 14.7306L21.6252 14.8238L21.8278 16.3101ZM21.2276 16.7521C21.3777 16.4926 21.6057 16.3404 21.8278 16.3101L21.6252 14.8238C20.8716 14.9266 20.2723 15.408 19.9292 16.0008L21.2276 16.7521ZM21.1465 17.4897C21.0608 17.2801 21.0786 17.0095 21.2276 16.7521L19.9292 16.0008C19.5844 16.5968 19.4706 17.3543 19.758 18.0573L21.1465 17.4897ZM21.4079 18.1293L21.1465 17.4897L19.758 18.0573L20.0195 18.6969L21.4079 18.1293ZM21.3845 18.0777L21.3845 18.0777L20.0429 18.7485L20.0429 18.7485L21.3845 18.0777ZM21.82 19.3683C21.7697 18.9986 21.6103 18.6244 21.408 18.1293L20.0195 18.6969C20.2556 19.2745 20.3155 19.4366 20.3337 19.5706L21.82 19.3683ZM21.0221 21.7011C21.6413 21.093 21.9371 20.2282 21.82 19.3683L20.3337 19.5706C20.3869 19.9615 20.2525 20.3545 19.971 20.631L21.0221 21.7011ZM19.9376 22.4282C20.4007 22.1608 20.7559 21.9625 21.0221 21.7011L19.971 20.631C19.8745 20.7257 19.728 20.8172 19.1876 21.1292L19.9376 22.4282ZM19.898 22.4495L19.898 22.4495L19.2272 21.1079L19.2271 21.1079L19.898 22.4495ZM18.5642 23.2211L19.9376 22.4282L19.1876 21.1292L17.8142 21.9221L18.5642 23.2211ZM17.3883 23.7984C17.749 23.6986 18.0995 23.4894 18.5642 23.2211L17.8142 21.9221C17.272 22.2351 17.119 22.3166 16.9882 22.3528L17.3883 23.7984ZM14.9731 23.3238C15.6585 23.8536 16.5534 24.0295 17.3883 23.7984L16.9882 22.3528C16.6088 22.4578 16.202 22.3778 15.8904 22.137L14.9731 23.3238ZM14.103 22.3444C14.4317 22.7686 14.6769 23.0949 14.9731 23.3238L15.8904 22.137C15.7831 22.054 15.6723 21.9207 15.2888 21.4258L14.103 22.3444ZM13.6804 21.7989L14.103 22.3444L15.2888 21.4258L14.8662 20.8803L13.6804 21.7989ZM13 21.5C13.2978 21.5 13.5422 21.6205 13.6804 21.7989L14.8662 20.8803C14.4012 20.28 13.6872 20 13 20V21.5ZM12.3198 21.7988C12.4579 21.6205 12.7023 21.5 13 21.5V20C12.3129 20 11.5989 20.28 11.134 20.8802L12.3198 21.7988ZM11.897 22.3445L12.3198 21.7988L11.134 20.8802L10.7113 21.4259L11.897 22.3445ZM11.0268 23.3241C11.323 23.0952 11.5683 22.7688 11.897 22.3445L10.7113 21.4259C10.3277 21.9209 10.2169 22.0543 10.1095 22.1373L11.0268 23.3241ZM8.61187 23.7987C9.44666 24.0296 10.3415 23.8538 11.0268 23.3241L10.1095 22.1373C9.798 22.378 9.39127 22.4579 9.01183 22.353L8.61187 23.7987ZM7.43566 23.2212C7.90048 23.4896 8.25103 23.6988 8.61187 23.7987L9.01183 22.353C8.88101 22.3168 8.72798 22.2353 8.18566 21.9222L7.43566 23.2212ZM7.39462 23.1957L7.39463 23.1957L8.22668 21.9477L8.22667 21.9476L7.39462 23.1957ZM6.06249 22.4284L7.43564 23.2212L8.18564 21.9222L6.81249 21.1294L6.06249 22.4284ZM4.97786 21.7013C5.24403 21.9627 5.59927 22.161 6.06249 22.4284L6.81249 21.1294C6.27204 20.8173 6.12545 20.7259 6.02895 20.6311L4.97786 21.7013ZM4.17997 19.3685C4.06295 20.2284 4.35871 21.0931 4.97786 21.7013L6.02895 20.6311C5.74752 20.3547 5.61308 19.9617 5.66627 19.5708L4.17997 19.3685ZM4.59208 18.1294C4.38968 18.6245 4.23028 18.9988 4.17997 19.3685L5.66627 19.5708C5.68451 19.4368 5.74439 19.2747 5.98054 18.697L4.59208 18.1294ZM4.85354 17.4898L4.59208 18.1294L5.98054 18.697L6.242 18.0574L4.85354 17.4898ZM4.77246 16.7521C4.92144 17.0096 4.93925 17.2802 4.85354 17.4898L6.242 18.0574C6.52942 17.3544 6.41566 16.5969 6.07078 16.0009L4.77246 16.7521ZM4.17212 16.3101C4.39427 16.3403 4.62232 16.4927 4.77246 16.7521L6.07078 16.0009C5.72771 15.408 5.12836 14.9266 4.37479 14.8238L4.17212 16.3101ZM3.48826 16.2168L4.17212 16.3101L4.37479 14.8238L3.69093 14.7306L3.48826 16.2168ZM2.20823 15.9539C2.55376 16.0953 2.95792 16.1445 3.48827 16.2168L3.69093 14.7306C3.07215 14.6462 2.90174 14.617 2.77647 14.5657L2.20823 15.9539ZM0.587543 14.0972C0.804684 14.9371 1.40539 15.6253 2.20823 15.9539L2.77647 14.5657C2.41154 14.4163 2.13849 14.1035 2.03979 13.7217L0.587543 14.0972ZM0.5 12.7934C0.5 13.3287 0.494089 13.7357 0.587543 14.0972L2.03979 13.7217C2.00591 13.5907 2 13.4179 2 12.7934H0.5ZM0.5 11.2066V12.7934H2V11.2066H0.5ZM0.587542 9.90274C0.494089 10.2642 0.5 10.6713 0.5 11.2066H2C2 10.582 2.00591 10.4093 2.03979 10.2782L0.587542 9.90274ZM2.20823 8.04605C1.40539 8.37468 0.804683 9.06286 0.587542 9.90274L2.03979 10.2782C2.13849 9.89644 2.41154 9.58363 2.77647 9.43425L2.20823 8.04605ZM3.48826 7.78315C2.95791 7.85547 2.55376 7.90461 2.20823 8.04605L2.77647 9.43425C2.90174 9.38298 3.07215 9.35377 3.69093 9.26939L3.48826 7.78315ZM4.17209 7.6899L3.48826 7.78315L3.69093 9.26939L4.37476 9.17614L4.17209 7.6899ZM4.77248 7.2478C4.62232 7.50728 4.39426 7.6596 4.17209 7.6899L4.37476 9.17614C5.12834 9.07338 5.72771 8.59194 6.07078 7.99906L4.77248 7.2478ZM4.85356 6.51003C4.93928 6.71972 4.92146 6.99032 4.77248 7.2478L6.07078 7.99906C6.41568 7.40301 6.52944 6.64552 6.24202 5.94242L4.85356 6.51003ZM4.5921 5.87046L4.85356 6.51003L6.24202 5.94242L5.98056 5.30286L4.5921 5.87046ZM4.17999 4.63134C4.2303 5.00103 4.3897 5.37535 4.5921 5.87046L5.98056 5.30286C5.74441 4.72519 5.68453 4.56312 5.66629 4.42909L4.17999 4.63134ZM4.97787 2.29862C4.35873 2.90674 4.06298 3.77143 4.17999 4.63134L5.66629 4.42909C5.6131 4.03822 5.74754 3.64518 6.02896 3.36876L4.97787 2.29862ZM6.06252 1.57145C5.59929 1.8389 5.24404 2.03719 4.97787 2.29863L6.02896 3.36876C6.12546 3.27398 6.27206 3.18253 6.81252 2.87049L6.06252 1.57145ZM7.43561 0.778699L6.06252 1.57145L6.81252 2.87049L8.18561 2.07774L7.43561 0.778699ZM8.61195 0.201198C8.25107 0.301027 7.90048 0.510307 7.43561 0.778699L8.18561 2.07774C8.728 1.76459 8.88104 1.6831 9.01187 1.6469L8.61195 0.201198ZM11.0268 0.675725C10.3415 0.146111 9.4467 -0.0297154 8.61195 0.201198L9.01187 1.6469C9.3913 1.54194 9.79801 1.62186 10.1095 1.8626L11.0268 0.675725ZM15.2499 12C15.2499 13.2426 14.2426 14.25 12.9999 14.25V15.75C15.071 15.75 16.7499 14.0711 16.7499 12H15.2499ZM12.9999 9.75C14.2426 9.75 15.2499 10.7574 15.2499 12H16.7499C16.7499 9.92893 15.071 8.25 12.9999 8.25V9.75ZM10.7499 12C10.7499 10.7574 11.7573 9.75 12.9999 9.75V8.25C10.9289 8.25 9.24992 9.92893 9.24992 12H10.7499ZM12.9999 14.25C11.7573 14.25 10.7499 13.2426 10.7499 12H9.24992C9.24992 14.0711 10.9289 15.75 12.9999 15.75V14.25Z" fill="#4F03E0"/>
</svg>
