<svg width="24" height="24" viewBox="0 0 24 24" fill="none" xmlns="http://www.w3.org/2000/svg">
<path opacity="0.32" d="M12 0.556395C11.7772 0.556395 11.5544 0.575008 11.334 0.612236C10.8365 0.696242 10.3579 0.908945 9.40074 1.33435L6.05073 2.82323C4.67501 3.43466 3.98714 3.74038 3.48276 4.22362C3.03692 4.65077 2.69601 5.17534 2.48675 5.75624C2.25 6.41342 2.25 7.16615 2.25 8.67163L2.25 13.9761C2.25 15.2283 2.25 15.8545 2.42261 16.4228C2.57541 16.926 2.82593 17.3941 3.15982 17.8003C3.53698 18.2592 4.05796 18.6065 5.09992 19.3012L7.56241 20.9428C9.16619 22.012 9.96808 22.5466 10.8348 22.7543C11.2178 22.8461 11.6089 22.892 12 22.892L12 0.556395Z" fill="#4F03E0"/>
<path d="M12 22.8921L12 0.556473C12.2228 0.556473 12.4456 0.575086 12.666 0.612313C13.1635 0.69632 13.6421 0.909024 14.5993 1.33443L17.9493 2.82331C19.325 3.43474 20.0129 3.74045 20.5172 4.2237C20.9631 4.65085 21.304 5.17542 21.5133 5.75632C21.75 6.41349 21.75 7.16623 21.75 8.67171L21.75 13.9761C21.75 15.2284 21.75 15.8546 21.5774 16.4229C21.4246 16.9261 21.1741 17.3942 20.8402 17.8004C20.463 18.2593 19.942 18.6066 18.9001 19.3013L16.4376 20.9429C14.8338 22.0121 14.0319 22.5467 13.1652 22.7544C12.7822 22.8462 12.3911 22.8921 12 22.8921Z" fill="#4F03E0"/>
</svg>
