<svg width="25" height="24" viewBox="0 0 25 24" fill="none" xmlns="http://www.w3.org/2000/svg">
<path fill-rule="evenodd" clip-rule="evenodd" d="M4.42313 1.55938C5.0505 1.25 5.867 1.25 7.5 1.25H17.5C19.133 1.25 19.9495 1.25 20.5769 1.55938C21.1692 1.85147 21.6485 2.33084 21.9406 2.92313C22.25 3.5505 22.25 4.367 22.25 6C22.25 7.633 22.25 8.4495 21.9406 9.07687C21.6485 9.66916 21.1692 10.1485 20.5769 10.4406C19.9495 10.75 19.133 10.75 17.5 10.75H7.5C5.867 10.75 5.0505 10.75 4.42313 10.4406C3.83084 10.1485 3.35147 9.66916 3.05938 9.07687C2.75 8.4495 2.75 7.633 2.75 6C2.75 4.367 2.75 3.5505 3.05938 2.92313C3.35147 2.33084 3.83084 1.85147 4.42313 1.55938ZM4.42313 12.5594C5.0505 12.25 5.867 12.25 7.5 12.25H17.5C19.133 12.25 19.9495 12.25 20.5769 12.5594C21.1692 12.8515 21.6485 13.3308 21.9406 13.9231C22.25 14.5505 22.25 15.367 22.25 17C22.25 18.633 22.25 19.4495 21.9406 20.0769C21.6485 20.6692 21.1692 21.1485 20.5769 21.4406C19.9495 21.75 19.133 21.75 17.5 21.75H7.5C5.867 21.75 5.0505 21.75 4.42313 21.4406C3.83084 21.1485 3.35147 20.6692 3.05938 20.0769C2.75 19.4495 2.75 18.633 2.75 17C2.75 15.367 2.75 14.5505 3.05938 13.9231C3.35147 13.3308 3.83084 12.8515 4.42313 12.5594ZM17.5 7C18.0523 7 18.5 6.55228 18.5 6C18.5 5.44772 18.0523 5 17.5 5C16.9477 5 16.5 5.44772 16.5 6C16.5 6.55228 16.9477 7 17.5 7ZM17.5 18C18.0523 18 18.5 17.5523 18.5 17C18.5 16.4477 18.0523 16 17.5 16C16.9477 16 16.5 16.4477 16.5 17C16.5 17.5523 16.9477 18 17.5 18Z" fill="#4F03E0"/>
</svg>
