<svg width="229" height="166" viewBox="0 0 229 166" fill="none" xmlns="http://www.w3.org/2000/svg">
<path d="M53.3124 18H51.0624L55.1589 6.36364H57.7612L61.8635 18H59.6135L56.5055 8.75H56.4146L53.3124 18ZM53.3862 13.4375H59.5226V15.1307H53.3862V13.4375ZM63.5462 18V6.36364H71.0007V8.13068H65.6541V11.2898H70.4893V13.0568H65.6541V18H63.5462ZM73.0712 18V6.36364H80.5257V8.13068H75.1791V11.2898H80.0143V13.0568H75.1791V18H73.0712ZM92.9939 12.1818C92.9939 13.4356 92.759 14.5095 92.2893 15.4034C91.8234 16.2936 91.1871 16.9754 90.3803 17.4489C89.5772 17.9223 88.6662 18.1591 87.6473 18.1591C86.6284 18.1591 85.7155 17.9223 84.9087 17.4489C84.1056 16.9716 83.4693 16.2879 82.9996 15.3977C82.5337 14.5038 82.3007 13.4318 82.3007 12.1818C82.3007 10.928 82.5337 9.85606 82.9996 8.96591C83.4693 8.07197 84.1056 7.38826 84.9087 6.91477C85.7155 6.44129 86.6284 6.20455 87.6473 6.20455C88.6662 6.20455 89.5772 6.44129 90.3803 6.91477C91.1871 7.38826 91.8234 8.07197 92.2893 8.96591C92.759 9.85606 92.9939 10.928 92.9939 12.1818ZM90.8746 12.1818C90.8746 11.2992 90.7363 10.5549 90.4598 9.94886C90.1871 9.33902 89.8083 8.87879 89.3234 8.56818C88.8386 8.25379 88.2799 8.09659 87.6473 8.09659C87.0147 8.09659 86.456 8.25379 85.9712 8.56818C85.4863 8.87879 85.1056 9.33902 84.8291 9.94886C84.5564 10.5549 84.42 11.2992 84.42 12.1818C84.42 13.0644 84.5564 13.8106 84.8291 14.4205C85.1056 15.0265 85.4863 15.4867 85.9712 15.8011C86.456 16.1117 87.0147 16.267 87.6473 16.267C88.2799 16.267 88.8386 16.1117 89.3234 15.8011C89.8083 15.4867 90.1871 15.0265 90.4598 14.4205C90.7363 13.8106 90.8746 13.0644 90.8746 12.1818ZM95.1368 18V6.36364H99.5004C100.394 6.36364 101.144 6.51894 101.75 6.82955C102.36 7.14015 102.82 7.57576 103.131 8.13636C103.445 8.69318 103.603 9.3428 103.603 10.0852C103.603 10.8314 103.444 11.4792 103.125 12.0284C102.811 12.5739 102.347 12.9962 101.733 13.2955C101.12 13.5909 100.366 13.7386 99.472 13.7386H96.3641V11.9886H99.1879C99.7107 11.9886 100.139 11.9167 100.472 11.7727C100.805 11.625 101.052 11.411 101.211 11.1307C101.374 10.8466 101.455 10.4981 101.455 10.0852C101.455 9.67235 101.374 9.32008 101.211 9.02841C101.048 8.73295 100.8 8.50947 100.466 8.35795C100.133 8.20265 99.7031 8.125 99.1766 8.125H97.2447V18H95.1368ZM101.148 12.7273L104.029 18H101.677L98.847 12.7273H101.148ZM109.636 18H105.693V6.36364H109.716C110.871 6.36364 111.863 6.59659 112.693 7.0625C113.526 7.52462 114.167 8.18939 114.613 9.05682C115.06 9.92424 115.284 10.9621 115.284 12.1705C115.284 13.3826 115.059 14.4242 114.608 15.2955C114.161 16.1667 113.515 16.8352 112.67 17.3011C111.829 17.767 110.818 18 109.636 18ZM107.801 16.1761H109.534C110.345 16.1761 111.021 16.0284 111.562 15.733C112.104 15.4337 112.511 14.9886 112.784 14.3977C113.057 13.803 113.193 13.0606 113.193 12.1705C113.193 11.2803 113.057 10.5417 112.784 9.95455C112.511 9.36364 112.108 8.92235 111.574 8.63068C111.043 8.33523 110.384 8.1875 109.596 8.1875H107.801V16.1761ZM118.306 18H116.056L120.153 6.36364H122.755L126.857 18H124.607L121.499 8.75H121.408L118.306 18ZM118.38 13.4375H124.516V15.1307H118.38V13.4375ZM128.54 18V6.36364H132.994C133.835 6.36364 134.534 6.49621 135.091 6.76136C135.652 7.02273 136.07 7.38068 136.347 7.83523C136.627 8.28977 136.767 8.80492 136.767 9.38068C136.767 9.85417 136.676 10.2595 136.494 10.5966C136.313 10.9299 136.068 11.2008 135.762 11.4091C135.455 11.6174 135.112 11.767 134.733 11.858V11.9716C135.146 11.9943 135.542 12.1212 135.921 12.3523C136.303 12.5795 136.616 12.9015 136.858 13.3182C137.101 13.7348 137.222 14.2386 137.222 14.8295C137.222 15.4318 137.076 15.9735 136.784 16.4545C136.493 16.9318 136.053 17.3087 135.466 17.5852C134.879 17.8617 134.14 18 133.25 18H128.54ZM130.648 16.2386H132.915C133.68 16.2386 134.231 16.0928 134.568 15.8011C134.909 15.5057 135.08 15.1269 135.08 14.6648C135.08 14.3201 134.994 14.0095 134.824 13.733C134.654 13.4527 134.411 13.233 134.097 13.0739C133.782 12.911 133.407 12.8295 132.972 12.8295H130.648V16.2386ZM130.648 11.3125H132.733C133.097 11.3125 133.424 11.2462 133.716 11.1136C134.008 10.9773 134.237 10.786 134.404 10.5398C134.574 10.2898 134.659 9.99432 134.659 9.65341C134.659 9.20265 134.5 8.83144 134.182 8.53977C133.868 8.24811 133.4 8.10227 132.779 8.10227H130.648V11.3125ZM141.313 6.36364V18H139.206V6.36364H141.313ZM143.746 18V6.36364H145.854V16.233H150.979V18H143.746ZM155.067 6.36364V18H152.959V6.36364H155.067ZM156.988 8.13068V6.36364H166.272V8.13068H162.675V18H160.585V8.13068H156.988ZM167.416 6.36364H169.797L172.644 11.5114H172.757L175.604 6.36364H177.985L173.752 13.6591V18H171.649V13.6591L167.416 6.36364Z" fill="#F3E9FE"/>
<path d="M5.59417 72.1307V70.3636H14.8783V72.1307H11.2817V82H9.19076V72.1307H5.59417ZM16.818 82V70.3636H21.1817C22.0756 70.3636 22.8256 70.5189 23.4317 70.8295C24.0415 71.1402 24.5017 71.5758 24.8124 72.1364C25.1267 72.6932 25.2839 73.3428 25.2839 74.0852C25.2839 74.8314 25.1249 75.4792 24.8067 76.0284C24.4923 76.5739 24.0283 76.9962 23.4146 77.2955C22.801 77.5909 22.0472 77.7386 21.1533 77.7386H18.0453V75.9886H20.8692C21.3919 75.9886 21.8199 75.9167 22.1533 75.7727C22.4866 75.625 22.7328 75.411 22.8919 75.1307C23.0548 74.8466 23.1362 74.4981 23.1362 74.0852C23.1362 73.6723 23.0548 73.3201 22.8919 73.0284C22.729 72.733 22.4809 72.5095 22.1476 72.358C21.8142 72.2027 21.3843 72.125 20.8578 72.125H18.926V82H16.818ZM22.8294 76.7273L25.7101 82H23.3578L20.5283 76.7273H22.8294ZM34.7095 70.3636H36.8175V77.9659C36.8175 78.7992 36.6205 79.5322 36.2266 80.1648C35.8364 80.7973 35.2872 81.2917 34.5788 81.6477C33.8705 82 33.0428 82.1761 32.0959 82.1761C31.1451 82.1761 30.3156 82 29.6072 81.6477C28.8989 81.2917 28.3497 80.7973 27.9595 80.1648C27.5694 79.5322 27.3743 78.7992 27.3743 77.9659V70.3636H29.4822V77.7898C29.4822 78.2746 29.5883 78.7064 29.8004 79.0852C30.0163 79.464 30.3194 79.7614 30.7095 79.9773C31.0997 80.1894 31.5618 80.2955 32.0959 80.2955C32.63 80.2955 33.0921 80.1894 33.4822 79.9773C33.8762 79.7614 34.1792 79.464 34.3913 79.0852C34.6035 78.7064 34.7095 78.2746 34.7095 77.7898V70.3636ZM45.5825 73.5625C45.5295 73.0663 45.306 72.6799 44.9121 72.4034C44.5219 72.1269 44.0143 71.9886 43.3893 71.9886C42.95 71.9886 42.5731 72.0549 42.2587 72.1875C41.9443 72.3201 41.7037 72.5 41.5371 72.7273C41.3704 72.9545 41.2852 73.214 41.2814 73.5057C41.2814 73.7481 41.3363 73.9583 41.4462 74.1364C41.5598 74.3144 41.7132 74.4659 41.9064 74.5909C42.0996 74.7121 42.3136 74.8144 42.5484 74.8977C42.7833 74.9811 43.02 75.0511 43.2587 75.108L44.3496 75.3807C44.789 75.483 45.2113 75.6212 45.6166 75.7955C46.0257 75.9697 46.3912 76.1894 46.7132 76.4545C47.039 76.7197 47.2965 77.0398 47.4859 77.4148C47.6753 77.7898 47.77 78.2292 47.77 78.733C47.77 79.4148 47.5958 80.0152 47.2473 80.5341C46.8988 81.0492 46.395 81.4527 45.7359 81.7443C45.0806 82.0322 44.2871 82.1761 43.3553 82.1761C42.45 82.1761 41.664 82.036 40.9973 81.7557C40.3344 81.4754 39.8155 81.0663 39.4405 80.5284C39.0693 79.9905 38.8685 79.3352 38.8382 78.5625H40.9121C40.9424 78.9678 41.0674 79.3049 41.2871 79.5739C41.5068 79.8428 41.7928 80.0436 42.145 80.1761C42.5011 80.3087 42.8988 80.375 43.3382 80.375C43.7965 80.375 44.1981 80.3068 44.5428 80.1705C44.8912 80.0303 45.164 79.8371 45.3609 79.5909C45.5579 79.3409 45.6583 79.0492 45.6621 78.7159C45.6583 78.4129 45.5693 78.1629 45.395 77.9659C45.2208 77.7652 44.9765 77.5985 44.6621 77.4659C44.3515 77.3295 43.9878 77.2083 43.5712 77.1023L42.2473 76.7614C41.289 76.5152 40.5314 76.142 39.9746 75.642C39.4215 75.1383 39.145 74.4697 39.145 73.6364C39.145 72.9508 39.3306 72.3504 39.7018 71.8352C40.0768 71.3201 40.5863 70.9205 41.2303 70.6364C41.8742 70.3485 42.6034 70.2045 43.4178 70.2045C44.2435 70.2045 44.967 70.3485 45.5882 70.6364C46.2132 70.9205 46.7037 71.3163 47.0598 71.8239C47.4159 72.3277 47.5996 72.9072 47.6109 73.5625H45.5825ZM49.2879 72.1307V70.3636H58.572V72.1307H54.9754V82H52.8845V72.1307H49.2879ZM62.9607 82L59.6766 70.3636H61.9436L64.0402 78.9148H64.1482L66.3868 70.3636H68.4493L70.6936 78.9205H70.7959L72.8925 70.3636H75.1595L71.8754 82H69.7959L67.4663 73.8352H67.3754L65.0402 82H62.9607ZM86.5439 76.1818C86.5439 77.4356 86.309 78.5095 85.8393 79.4034C85.3734 80.2936 84.7371 80.9754 83.9303 81.4489C83.1272 81.9223 82.2162 82.1591 81.1973 82.1591C80.1784 82.1591 79.2655 81.9223 78.4587 81.4489C77.6556 80.9716 77.0193 80.2879 76.5496 79.3977C76.0837 78.5038 75.8507 77.4318 75.8507 76.1818C75.8507 74.928 76.0837 73.8561 76.5496 72.9659C77.0193 72.072 77.6556 71.3883 78.4587 70.9148C79.2655 70.4413 80.1784 70.2045 81.1973 70.2045C82.2162 70.2045 83.1272 70.4413 83.9303 70.9148C84.7371 71.3883 85.3734 72.072 85.8393 72.9659C86.309 73.8561 86.5439 74.928 86.5439 76.1818ZM84.4246 76.1818C84.4246 75.2992 84.2863 74.5549 84.0098 73.9489C83.7371 73.339 83.3583 72.8788 82.8734 72.5682C82.3886 72.2538 81.8299 72.0966 81.1973 72.0966C80.5647 72.0966 80.006 72.2538 79.5212 72.5682C79.0363 72.8788 78.6556 73.339 78.3791 73.9489C78.1064 74.5549 77.97 75.2992 77.97 76.1818C77.97 77.0644 78.1064 77.8106 78.3791 78.4205C78.6556 79.0265 79.0363 79.4867 79.5212 79.8011C80.006 80.1117 80.5647 80.267 81.1973 80.267C81.8299 80.267 82.3886 80.1117 82.8734 79.8011C83.3583 79.4867 83.7371 79.0265 84.0098 78.4205C84.2863 77.8106 84.4246 77.0644 84.4246 76.1818ZM88.6868 82V70.3636H93.0504C93.9444 70.3636 94.6944 70.5189 95.3004 70.8295C95.9103 71.1402 96.3705 71.5758 96.6811 72.1364C96.9955 72.6932 97.1527 73.3428 97.1527 74.0852C97.1527 74.8314 96.9936 75.4792 96.6754 76.0284C96.361 76.5739 95.897 76.9962 95.2834 77.2955C94.6697 77.5909 93.916 77.7386 93.022 77.7386H89.9141V75.9886H92.7379C93.2607 75.9886 93.6887 75.9167 94.022 75.7727C94.3554 75.625 94.6016 75.411 94.7607 75.1307C94.9235 74.8466 95.005 74.4981 95.005 74.0852C95.005 73.6723 94.9235 73.3201 94.7607 73.0284C94.5978 72.733 94.3497 72.5095 94.0163 72.358C93.683 72.2027 93.2531 72.125 92.7266 72.125H90.7947V82H88.6868ZM94.6982 76.7273L97.5788 82H95.2266L92.397 76.7273H94.6982ZM98.7317 72.1307V70.3636H108.016V72.1307H104.419V82H102.328V72.1307H98.7317ZM109.956 82V70.3636H112.063V75.2898H117.456V70.3636H119.569V82H117.456V77.0568H112.063V82H109.956ZM121.216 70.3636H123.597L126.444 75.5114H126.557L129.404 70.3636H131.785L127.552 77.6591V82H125.449V77.6591L121.216 70.3636ZM140.933 82.1705C140.137 82.1705 139.453 82.0265 138.881 81.7386C138.309 81.4508 137.868 81.0625 137.558 80.5739C137.251 80.0814 137.097 79.5265 137.097 78.9091C137.097 78.4432 137.192 78.0303 137.381 77.6705C137.575 77.3106 137.84 76.9773 138.177 76.6705C138.518 76.3636 138.912 76.0587 139.359 75.7557L141.421 74.3523C141.724 74.1553 141.953 73.947 142.109 73.7273C142.268 73.5076 142.347 73.25 142.347 72.9545C142.347 72.7045 142.241 72.4678 142.029 72.2443C141.821 72.0208 141.533 71.9091 141.165 71.9091C140.919 71.9091 140.701 71.9678 140.512 72.0852C140.326 72.1989 140.181 72.3485 140.075 72.5341C139.972 72.7197 139.921 72.9167 139.921 73.125C139.921 73.3788 139.991 73.6364 140.131 73.8977C140.275 74.1591 140.461 74.4299 140.688 74.7102C140.919 74.9905 141.165 75.2879 141.427 75.6023L146.887 82H144.66L140.126 76.8068C139.789 76.4129 139.463 76.0246 139.148 75.642C138.838 75.2595 138.582 74.8617 138.381 74.4489C138.184 74.0322 138.086 73.5814 138.086 73.0966C138.086 72.5473 138.213 72.0568 138.467 71.625C138.72 71.1894 139.075 70.8466 139.529 70.5966C139.987 70.3466 140.523 70.2216 141.137 70.2216C141.751 70.2216 142.277 70.3428 142.717 70.5852C143.156 70.8277 143.495 71.1496 143.734 71.5511C143.972 71.9527 144.092 72.3902 144.092 72.8636C144.092 73.4129 143.955 73.9053 143.683 74.3409C143.41 74.7727 143.031 75.1648 142.546 75.517L140.194 77.2386C139.808 77.5189 139.531 77.803 139.364 78.0909C139.198 78.375 139.114 78.6174 139.114 78.8182C139.114 79.125 139.192 79.4034 139.347 79.6534C139.503 79.9034 139.72 80.1042 140.001 80.2557C140.285 80.4034 140.616 80.4773 140.995 80.4773C141.412 80.4773 141.823 80.3845 142.228 80.1989C142.633 80.0095 143.003 79.7405 143.336 79.392C143.669 79.0436 143.934 78.6269 144.131 78.142C144.328 77.6534 144.427 77.1117 144.427 76.517H146.194C146.194 77.2519 146.112 77.892 145.95 78.4375C145.787 78.9792 145.576 79.4375 145.319 79.8125C145.061 80.1837 144.789 80.4811 144.501 80.7045C144.41 80.7689 144.323 80.8333 144.239 80.8977C144.156 80.9621 144.069 81.0265 143.978 81.0909C143.569 81.4621 143.09 81.7348 142.54 81.9091C141.995 82.0833 141.459 82.1705 140.933 82.1705ZM154.873 82L151.589 70.3636H153.856L155.953 78.9148H156.061L158.299 70.3636H160.362L162.606 78.9205H162.708L164.805 70.3636H167.072L163.788 82H161.708L159.379 73.8352H159.288L156.953 82H154.873ZM178.456 76.1818C178.456 77.4356 178.222 78.5095 177.752 79.4034C177.286 80.2936 176.65 80.9754 175.843 81.4489C175.04 81.9223 174.129 82.1591 173.11 82.1591C172.091 82.1591 171.178 81.9223 170.371 81.4489C169.568 80.9716 168.932 80.2879 168.462 79.3977C167.996 78.5038 167.763 77.4318 167.763 76.1818C167.763 74.928 167.996 73.8561 168.462 72.9659C168.932 72.072 169.568 71.3883 170.371 70.9148C171.178 70.4413 172.091 70.2045 173.11 70.2045C174.129 70.2045 175.04 70.4413 175.843 70.9148C176.65 71.3883 177.286 72.072 177.752 72.9659C178.222 73.8561 178.456 74.928 178.456 76.1818ZM176.337 76.1818C176.337 75.2992 176.199 74.5549 175.922 73.9489C175.65 73.339 175.271 72.8788 174.786 72.5682C174.301 72.2538 173.742 72.0966 173.11 72.0966C172.477 72.0966 171.919 72.2538 171.434 72.5682C170.949 72.8788 170.568 73.339 170.292 73.9489C170.019 74.5549 169.883 75.2992 169.883 76.1818C169.883 77.0644 170.019 77.8106 170.292 78.4205C170.568 79.0265 170.949 79.4867 171.434 79.8011C171.919 80.1117 172.477 80.267 173.11 80.267C173.742 80.267 174.301 80.1117 174.786 79.8011C175.271 79.4867 175.65 79.0265 175.922 78.4205C176.199 77.8106 176.337 77.0644 176.337 76.1818ZM180.599 82V70.3636H184.963C185.857 70.3636 186.607 70.5189 187.213 70.8295C187.823 71.1402 188.283 71.5758 188.594 72.1364C188.908 72.6932 189.065 73.3428 189.065 74.0852C189.065 74.8314 188.906 75.4792 188.588 76.0284C188.274 76.5739 187.81 76.9962 187.196 77.2955C186.582 77.5909 185.828 77.7386 184.935 77.7386H181.827V75.9886H184.65C185.173 75.9886 185.601 75.9167 185.935 75.7727C186.268 75.625 186.514 75.411 186.673 75.1307C186.836 74.8466 186.917 74.4981 186.917 74.0852C186.917 73.6723 186.836 73.3201 186.673 73.0284C186.51 72.733 186.262 72.5095 185.929 72.358C185.595 72.2027 185.166 72.125 184.639 72.125H182.707V82H180.599ZM186.611 76.7273L189.491 82H187.139L184.31 76.7273H186.611ZM190.644 72.1307V70.3636H199.928V72.1307H196.332V82H194.241V72.1307H190.644ZM201.868 82V70.3636H203.976V75.2898H209.368V70.3636H211.482V82H209.368V77.0568H203.976V82H201.868ZM213.129 70.3636H215.51L218.356 75.5114H218.47L221.316 70.3636H223.697L219.464 77.6591V82H217.362V77.6591L213.129 70.3636Z" fill="#D8B7FB"/>
<path d="M11.017 143.565C10.9489 142.878 10.6563 142.344 10.1392 141.963C9.62216 141.582 8.92045 141.392 8.03409 141.392C7.43182 141.392 6.9233 141.477 6.50852 141.648C6.09375 141.812 5.77557 142.043 5.55398 142.338C5.33807 142.634 5.23011 142.969 5.23011 143.344C5.21875 143.656 5.28409 143.929 5.42614 144.162C5.57386 144.395 5.77557 144.597 6.03125 144.767C6.28693 144.932 6.58239 145.077 6.91761 145.202C7.25284 145.321 7.6108 145.423 7.99148 145.509L9.55966 145.884C10.321 146.054 11.0199 146.281 11.6562 146.565C12.2926 146.849 12.8438 147.199 13.3097 147.614C13.7756 148.028 14.1364 148.517 14.392 149.08C14.6534 149.642 14.7869 150.287 14.7926 151.014C14.7869 152.082 14.5142 153.009 13.9744 153.793C13.4403 154.571 12.6676 155.176 11.6562 155.608C10.6506 156.034 9.4375 156.247 8.01705 156.247C6.60795 156.247 5.38068 156.031 4.33523 155.599C3.29545 155.168 2.48295 154.528 1.89773 153.682C1.31818 152.83 1.0142 151.776 0.985795 150.52H4.55682C4.59659 151.105 4.7642 151.594 5.05966 151.986C5.3608 152.372 5.76136 152.665 6.26136 152.864C6.76705 153.057 7.33807 153.153 7.97443 153.153C8.59943 153.153 9.14205 153.062 9.60227 152.881C10.0682 152.699 10.429 152.446 10.6847 152.122C10.9403 151.798 11.0682 151.426 11.0682 151.006C11.0682 150.614 10.9517 150.284 10.7188 150.017C10.4915 149.75 10.1563 149.523 9.71307 149.335C9.27557 149.148 8.73864 148.977 8.10227 148.824L6.2017 148.347C4.73011 147.989 3.56818 147.429 2.71591 146.668C1.86364 145.906 1.44034 144.881 1.44602 143.591C1.44034 142.534 1.72159 141.611 2.28977 140.821C2.86364 140.031 3.65057 139.415 4.65057 138.972C5.65057 138.528 6.78693 138.307 8.05966 138.307C9.35511 138.307 10.4858 138.528 11.4517 138.972C12.4233 139.415 13.179 140.031 13.7188 140.821C14.2585 141.611 14.5369 142.526 14.554 143.565H11.017ZM19.8849 156H15.9304L21.956 138.545H26.7116L32.7287 156H28.7741L24.402 142.534H24.2656L19.8849 156ZM19.6378 149.139H28.9787V152.02H19.6378V149.139ZM34.8295 156V138.545H46.3864V141.588H38.5199V145.747H45.6193V148.79H38.5199V156H34.8295ZM48.8686 156V138.545H60.63V141.588H52.5589V145.747H60.0249V148.79H52.5589V152.957H60.6641V156H48.8686ZM62.8991 141.588V138.545H77.2344V141.588H71.8906V156H68.2429V141.588H62.8991ZM78.5724 138.545H82.706L86.6861 146.062H86.8565L90.8366 138.545H94.9702L88.6037 149.83V156H84.9389V149.83L78.5724 138.545ZM107.825 156.256C106.62 156.256 105.58 156.04 104.705 155.608C103.83 155.176 103.157 154.591 102.685 153.852C102.219 153.108 101.987 152.278 101.987 151.364C101.987 150.682 102.123 150.077 102.396 149.548C102.668 149.02 103.049 148.534 103.538 148.091C104.026 147.642 104.594 147.196 105.242 146.753L108.626 144.528C109.063 144.25 109.384 143.957 109.589 143.651C109.793 143.338 109.896 143 109.896 142.636C109.896 142.29 109.756 141.969 109.478 141.673C109.2 141.378 108.805 141.233 108.293 141.239C107.952 141.239 107.657 141.315 107.407 141.469C107.157 141.616 106.961 141.812 106.819 142.057C106.683 142.295 106.614 142.562 106.614 142.858C106.614 143.222 106.717 143.591 106.921 143.966C107.126 144.341 107.398 144.739 107.739 145.159C108.08 145.574 108.452 146.023 108.856 146.506L117.131 156H113.347L106.444 148.312C105.989 147.795 105.535 147.256 105.08 146.693C104.631 146.125 104.256 145.523 103.955 144.886C103.654 144.244 103.504 143.548 103.504 142.798C103.504 141.952 103.7 141.19 104.092 140.514C104.489 139.838 105.046 139.304 105.762 138.912C106.478 138.514 107.313 138.315 108.268 138.315C109.2 138.315 110.004 138.506 110.68 138.886C111.362 139.261 111.884 139.761 112.248 140.386C112.617 141.006 112.802 141.687 112.802 142.432C112.802 143.256 112.597 144.003 112.188 144.673C111.785 145.338 111.217 145.935 110.484 146.463L106.921 149.028C106.438 149.381 106.08 149.741 105.847 150.111C105.62 150.474 105.506 150.824 105.506 151.159C105.506 151.574 105.609 151.946 105.813 152.276C106.018 152.605 106.308 152.866 106.683 153.06C107.058 153.247 107.498 153.341 108.004 153.341C108.617 153.341 109.222 153.202 109.819 152.923C110.421 152.639 110.967 152.239 111.455 151.722C111.95 151.199 112.344 150.58 112.64 149.864C112.935 149.148 113.083 148.355 113.083 147.486H116.092C116.092 148.554 115.975 149.517 115.742 150.375C115.509 151.227 115.185 151.972 114.771 152.608C114.356 153.239 113.881 153.756 113.347 154.159C113.177 154.267 113.012 154.369 112.853 154.466C112.694 154.562 112.529 154.665 112.359 154.773C111.711 155.295 110.987 155.673 110.185 155.906C109.39 156.139 108.603 156.256 107.825 156.256ZM124.267 156V138.545H131.153C132.477 138.545 133.605 138.798 134.537 139.304C135.469 139.804 136.179 140.5 136.668 141.392C137.162 142.278 137.409 143.301 137.409 144.46C137.409 145.619 137.159 146.642 136.659 147.528C136.159 148.415 135.435 149.105 134.486 149.599C133.543 150.094 132.401 150.341 131.06 150.341H126.67V147.384H130.463C131.173 147.384 131.759 147.261 132.219 147.017C132.685 146.767 133.031 146.423 133.259 145.986C133.491 145.543 133.608 145.034 133.608 144.46C133.608 143.881 133.491 143.375 133.259 142.943C133.031 142.506 132.685 142.168 132.219 141.929C131.753 141.685 131.162 141.562 130.446 141.562H127.957V156H124.267ZM139.806 156V138.545H146.692C148.011 138.545 149.136 138.781 150.067 139.253C151.005 139.719 151.718 140.381 152.207 141.239C152.701 142.091 152.948 143.094 152.948 144.247C152.948 145.406 152.698 146.403 152.198 147.239C151.698 148.068 150.974 148.705 150.025 149.148C149.082 149.591 147.94 149.812 146.599 149.812H141.988V146.847H146.002C146.707 146.847 147.292 146.75 147.758 146.557C148.224 146.364 148.57 146.074 148.798 145.688C149.031 145.301 149.147 144.821 149.147 144.247C149.147 143.668 149.031 143.179 148.798 142.781C148.57 142.384 148.221 142.082 147.749 141.878C147.283 141.668 146.695 141.562 145.985 141.562H143.496V156H139.806ZM149.232 148.057L153.57 156H149.496L145.252 148.057H149.232ZM159.246 138.545V156H155.556V138.545H159.246ZM165.436 138.545L169.655 151.807H169.817L174.044 138.545H178.135L172.118 156H167.362L161.337 138.545H165.436ZM180.924 156H176.969L182.995 138.545H187.751L193.768 156H189.813L185.441 142.534H185.305L180.924 156ZM180.677 149.139H190.018V152.02H180.677V149.139ZM210.449 144.656H206.716C206.648 144.173 206.509 143.744 206.298 143.369C206.088 142.989 205.818 142.665 205.489 142.398C205.159 142.131 204.778 141.926 204.347 141.784C203.92 141.642 203.457 141.571 202.957 141.571C202.054 141.571 201.267 141.795 200.597 142.244C199.926 142.687 199.406 143.335 199.037 144.188C198.668 145.034 198.483 146.062 198.483 147.273C198.483 148.517 198.668 149.562 199.037 150.409C199.412 151.256 199.935 151.895 200.605 152.327C201.276 152.759 202.051 152.974 202.932 152.974C203.426 152.974 203.884 152.909 204.304 152.778C204.73 152.648 205.108 152.457 205.438 152.207C205.767 151.952 206.04 151.642 206.256 151.278C206.477 150.915 206.631 150.5 206.716 150.034L210.449 150.051C210.352 150.852 210.111 151.625 209.724 152.369C209.344 153.108 208.83 153.77 208.182 154.355C207.54 154.935 206.773 155.395 205.881 155.736C204.994 156.071 203.991 156.239 202.872 156.239C201.315 156.239 199.923 155.886 198.696 155.182C197.474 154.477 196.509 153.457 195.798 152.122C195.094 150.787 194.741 149.17 194.741 147.273C194.741 145.369 195.099 143.75 195.815 142.415C196.531 141.08 197.503 140.062 198.73 139.364C199.957 138.659 201.338 138.307 202.872 138.307C203.884 138.307 204.821 138.449 205.685 138.733C206.554 139.017 207.324 139.432 207.994 139.977C208.665 140.517 209.21 141.179 209.631 141.963C210.057 142.747 210.33 143.645 210.449 144.656ZM212.072 138.545H216.206L220.186 146.062H220.357L224.337 138.545H228.47L222.104 149.83V156H218.439V149.83L212.072 138.545Z" fill="#3B0A61"/>
</svg>
